<?xml version="1.0" standalone="no"?>
<!DOCTYPE svg PUBLIC "-//W3C//DTD SVG 20010904//EN"
 "http://www.w3.org/TR/2001/REC-SVG-20010904/DTD/svg10.dtd">
<svg version="1.0" xmlns="http://www.w3.org/2000/svg"
 width="700.000000pt" height="700.000000pt" viewBox="0 0 700.000000 700.000000"
 preserveAspectRatio="xMidYMid meet">
<metadata>
Created by potrace 1.11, written by Peter Selinger 2001-2013
</metadata>
<g transform="translate(0.000000,700.000000) scale(0.100000,-0.100000)"
fill="#000000" stroke="none">
<path d="M5707 6670 c-26 -16 -60 -44 -77 -62 -45 -50 -114 -197 -165 -355
-46 -143 -58 -163 -85 -157 -8 2 -28 6 -45 9 -16 3 -37 8 -45 10 -8 2 -28 7
-45 9 -16 3 -68 12 -115 20 -47 8 -119 18 -160 23 -95 10 -408 10 -480 0 -185
-27 -208 -36 -196 -75 4 -13 30 -25 87 -42 270 -78 487 -276 537 -490 6 -25
16 -88 22 -140 12 -106 18 -119 112 -257 163 -240 260 -509 260 -718 0 -102
-37 -268 -102 -458 -79 -233 -76 -256 40 -397 122 -148 210 -271 247 -347 34
-69 38 -85 38 -153 -1 -108 -30 -180 -150 -365 -88 -135 -115 -258 -150 -676
-3 -36 -8 -76 -10 -90 -3 -13 -7 -37 -10 -54 -7 -52 -46 -168 -72 -215 -100
-180 -324 -340 -561 -400 -51 -13 -82 -41 -82 -74 0 -13 7 -63 15 -112 9 -49
18 -100 20 -114 24 -151 38 -217 48 -227 7 -6 80 -34 164 -62 233 -77 647
-268 948 -435 157 -88 160 -86 151 131 -8 172 -11 220 -19 273 -3 19 -9 58
-12 85 -18 138 -56 269 -130 445 -172 412 -196 571 -105 687 54 69 133 100
274 108 178 9 380 34 461 57 139 40 255 179 270 324 10 101 31 155 84 219 98
117 101 144 21 201 -28 20 -47 40 -44 45 3 5 21 9 41 9 44 0 103 54 103 94 0
15 -20 68 -45 119 -63 128 -55 172 42 238 117 79 149 138 117 218 -15 38 -123
151 -144 151 -6 0 -18 6 -27 14 -10 8 -47 36 -83 63 -121 90 -152 208 -95 365
68 185 86 266 90 389 3 130 -20 259 -85 469 -29 95 -27 111 20 149 47 38 50
58 19 152 -56 171 -158 332 -297 465 -64 61 -64 61 -49 90 32 60 162 168 285
236 54 30 60 37 49 51 -17 22 -172 65 -270 74 -105 10 -209 0 -322 -32 -161
-45 -170 -43 -218 54 -31 63 -32 71 -31 176 1 80 7 132 24 190 36 129 36 125
8 125 -13 0 -45 -13 -71 -30z"/>
<path d="M3165 5939 c-27 -3 -75 -9 -105 -13 -167 -20 -478 -102 -615 -161
-204 -88 -269 -123 -429 -231 l-91 -61 -50 23 c-114 53 -223 18 -343 -111
-103 -111 -176 -266 -217 -460 -32 -149 -21 -226 40 -287 l27 -27 -16 -93
c-33 -201 -37 -386 -12 -634 15 -146 73 -390 131 -549 71 -198 237 -494 350
-625 151 -175 296 -307 430 -395 73 -47 75 -50 64 -89 -5 -17 -12 -47 -15 -66
-3 -19 -10 -53 -16 -75 -5 -22 -12 -51 -14 -65 -3 -14 -20 -99 -39 -190 -99
-481 -136 -673 -137 -701 -1 -20 8 -39 24 -56 24 -23 34 -26 125 -28 500 -13
1000 -189 1719 -605 140 -81 164 -87 185 -47 13 22 14 15 -36 267 -20 102 -38
194 -39 205 -4 22 -13 69 -20 100 -3 11 -18 84 -35 162 -40 188 -66 288 -97
374 -44 122 -32 166 49 188 23 6 119 13 212 15 183 5 196 6 295 36 135 40 234
131 274 250 8 25 17 86 21 135 7 93 9 100 63 180 21 33 32 61 32 84 0 41 -29
109 -53 130 -26 21 -20 38 16 56 69 34 101 77 92 122 -3 16 -9 60 -12 99 l-5
72 34 23 c129 88 189 182 167 263 -11 41 -22 53 -194 217 -52 49 -122 174
-144 254 -28 109 -17 206 42 340 55 126 70 188 71 305 1 160 -10 244 -48 361
-49 151 -117 269 -240 413 -61 72 -66 82 -60 110 11 46 12 136 2 181 -14 63
-62 157 -99 193 -63 62 -177 106 -334 127 -36 5 -107 17 -175 29 -66 11 -90
24 -150 78 -106 97 -262 160 -427 174 -121 9 -147 10 -198 3z"/>
<path d="M815 5686 c-142 -32 -277 -111 -390 -226 -89 -91 -83 -84 -138 -161
-103 -145 -169 -317 -194 -504 -13 -93 -5 -368 11 -394 2 -3 7 -22 10 -41 9
-60 55 -210 92 -299 35 -85 121 -252 154 -301 246 -357 362 -592 409 -827 28
-140 30 -160 37 -333 5 -125 9 -157 22 -167 13 -10 19 -10 34 0 36 23 164 335
215 522 24 87 27 119 27 245 1 161 -18 252 -90 448 -19 53 -47 129 -61 167
-14 39 -31 84 -38 100 -32 78 -87 249 -105 330 -15 68 -19 118 -16 205 4 126
4 129 35 212 41 106 134 201 231 233 50 17 57 25 66 84 28 171 116 352 234
476 56 60 64 78 42 98 -28 26 -172 94 -247 117 -90 27 -255 35 -340 16z"/>
</g>
</svg>
