<svg xmlns="http://www.w3.org/2000/svg" viewBox="0 0 141.73 141.73"><path d="M95 59.69c-.7-.61-.31-1.22-.31-1.84a3.81 3.81 0 00-.07-.67c-.48-3-1-6-1.45-9.06-.39-2.48-.67-5-1.18-7.44a5.64 5.64 0 00-1.37-2.85 11.42 11.42 0 00-3.92-2.07c-2-.74-4.11-.89-5.89-2.11-1.14-.78-2.53-1.2-3-2.78a2 2 0 00-2.15-1.45c.13-.61.08-1.23.37-1.55a27 27 0 004.33-7.15 13.09 13.09 0 00.93-9.62 6.58 6.58 0 00-2.51-3.71 1.17 1.17 0 01-.4-.39c-1.07-1.73-2-2.18-3.85-1.44a6.15 6.15 0 01-2.78.63 19.11 19.11 0 01-2.11.13c-2.59-.5-4.39.74-5.91 2.56a11.87 11.87 0 00-2.66 8.38 16.83 16.83 0 001.5 5.74 11 11 0 002.92 4.21c.92.8 1.77 1.66 2.63 2.52.13.14.12.41.21.74-1.53-.6-2.36-.5-2.9.37a5.11 5.11 0 00-.73 1.87 1.33 1.33 0 01-.84 1.14c-.92.44-1.82.91-2.71 1.41-1.31.74-2.6 1.5-3.89 2.27a1.21 1.21 0 00-.52.53c-.49 1.38-1 2.78-1.41 4.17-.66 2-1.31 4.08-2 6.12a26.48 26.48 0 01-.43-3.68c0-1.41-.89-2.88.27-4.29a5.21 5.21 0 00-1.07.33 5.06 5.06 0 01-.66.21 6.86 6.86 0 00-1.76 1.23c-1 .9-1.66 1.15-2.63 2.13h-.09c-.18.14-.5.27-.5.42a25.87 25.87 0 000 3.63c.34 3.21.7 6.42 1.21 9.6.26 1.58 0 3.27 1.31 4.69 1 1 1.91 1.66 3.12.81a9.09 9.09 0 002.63-2.61c1.87-3.16 3.54-6.43 5.31-9.65.1-.17.44-.19.67-.29a3.66 3.66 0 010 .67c-.08.34-.34.66-.32 1 .09 1.74.18 3.49.38 5.22a21.46 21.46 0 00.87 4.82c.57 1.5.31 3.26 1.59 4.57.33.34.55.76 1 .92l1.84.61v.25h-.77c-1.13.05-2.36 0-3.09 1a11.47 11.47 0 00-1.83 3.21c-1.75 6.39-3.39 12.8-5 19.22a19.09 19.09 0 01-6.19 10.21 20.36 20.36 0 01-8.83 4.53c-1.3.29-2.6.61-3.9.91l-.06.4a24.42 24.42 0 002.37 1.13c1.52.55 3.07 1 4.6 1.49a25.84 25.84 0 0010 1.09 25.25 25.25 0 0012-4 32.74 32.74 0 013.4-1.71l.1.19a18.74 18.74 0 01-6.6 4.53 8.81 8.81 0 00.09 1.28c.85 4 1.69 8.1 2.6 12.13.28 1.21.79 2.37 1.24 3.72 1.8-2.1 3.38-4 5.72-4.94-.08-4.73-.16-9.38-.27-14 0-1.31-.14-2.62-.21-4l1.32-.66c.07.87.18 1.68.19 2.48v14c0 .4.07 1.07.28 1.14a1.52 1.52 0 001.65-.13 2.81 2.81 0 011.42-.73c1.63-.15 2.13-1.25 2.43-2.59.09-.38.22-.76.33-1.14a93 93 0 002.42-14 1 1 0 01.37-.72 18 18 0 016-.93c.84 0 1.32 0 1.32-1a3.91 3.91 0 000-.84c-.11-.52-.29-1-.39-1.55-.34-1.92-.57-3.86-1-5.75s-1.17-4-1.77-6c-.08-.25-.14-.52-.26-.94a10.22 10.22 0 011 .49c.72.45 1.44.16 1.45-.68 0-1.36-.07-2.72-.08-4.08a2.46 2.46 0 01.2-1.11c.54-1.07 1.2-2.08 1.71-3.16.63-1.32 1.18-2.68 1.72-4a30.63 30.63 0 002.38-8c0-.51.12-1 .17-1.52h.19v.6a20 20 0 00.51-3.18c.11-.56.25-1.39 0-1.64zm-7.54 4.6c-.73 2.9-1.64 5.76-2.5 8.63-.2.65-.19 1.42-1.13 1.69-.3.08-.42.8-.66 1.31a6 6 0 01-1-2.43c-.32-1.1-.62-2.21-1-3.31a11.46 11.46 0 00-.67-1.4 16.77 16.77 0 01.56-2.78c.53-1.35 1.25-2.63 1.91-3.92.25-.49.72-.9.84-1.4.63-2.55 1.17-5.12 1.74-7.69 0-.22.07-.44.12-.66a2.28 2.28 0 01.21-.38c.16.19.34.3.37.45a29.84 29.84 0 011.25 5.34 20.14 20.14 0 01-.08 6.55zM46.32 40.73a2.1 2.1 0 00.55.72c-.06.49 0 .76.26.95s.79-.07 1.19-.2c.17-.05.3-.25.45-.38l2.46-2.08c.46-.45.7-.61 1.05-.91.57-.49.77-1 .52-1.52a.46.46 0 010-.3 3.86 3.86 0 000-3.14 18.06 18.06 0 01-.85-6 4 4 0 00-.21-1.87c-.16-.39-.39-1-1.05-.91s-.66.69-.72 1.13v.59a8.49 8.49 0 01-1.5 4.35c-1 1.23-1.87 2.5-2.86 3.71a2.7 2.7 0 00-.61 2.57 25 25 0 001.32 3.29z" fill="#7f82be"/><path d="M98.81 34.34a50.28 50.28 0 11-63.28 7.87" fill="none" stroke="#feebd4" stroke-linecap="round" stroke-miterlimit="10" stroke-width="7.58"/></svg>
