<svg xmlns="http://www.w3.org/2000/svg" viewBox="0 0 141.73 141.73"><defs><style>.cls-3{fill:#fff}</style></defs><path d="M98.22 33.35a50.27 50.27 0 11-64.35 11.19" fill="none" stroke="#feebd4" stroke-linecap="round" stroke-miterlimit="10" stroke-width="7.58"/><path d="M102.08 74.57c-.82-.54-.53-1.17-.37-1.85 1.26-5.51 2.88-10.95 3.36-16.63.09-1.11-.38-1.56-1.46-1.35l-1.08.23c-2.25.51-4.52.92-6.73 1.58a22.22 22.22 0 00-3.47 1.67 5.16 5.16 0 00-.79-1.37c-2.76-2.39-5.77-4.19-9.62-4h-.27c-.67-.41-1.16 0-1.5.46a1.27 1.27 0 01-1.69.39c-.48-.17-.94-.4-1.4-.61.55-1.27.37-1.74-.85-2.31-.69-.32-1.42-.58-2.09-.95s-1.35-2.47-.83-3.13A10 10 0 0075 42.41a1 1 0 01.65-.63A2.69 2.69 0 0077.91 40a27 27 0 001.28-4.78c.34-2.68.67-5.44-1.46-7.7a1 1 0 01-.2-.41 3.24 3.24 0 00-2-2.15A4.48 4.48 0 0173 22.41c-.77-2.31-2.59-3.12-4.77-3.26-2.57-.17-4.39 1.12-5.69 3.27-.2.34-.43.67-.65 1-.14-.09-.19-.1-.19-.12a3.18 3.18 0 01-.06-.43A2.84 2.84 0 0060 20.25a5.94 5.94 0 00-5.68.11c-3.16 1.94-5.56 6.76-4.22 10.5.46 1.27 1 2.51 1.43 3.79a3.55 3.55 0 01-.53 3.07 14.28 14.28 0 00-.89 1.49c-.88 2-1.76 3.94-2.56 5.94a8.63 8.63 0 00-.6 2.4 2.58 2.58 0 001.65 2.56 2.41 2.41 0 002.96-.11c1.14-1.16 2.59-1 3.93-1.22s2.75-.4 4.16-.6c-.18.44-.45 1-.66 1.63-.27.76-.77 1.43-.51 2.37.09.3-.61 1.15-1 1.19-2.73.3-4.65 2.08-6.13 4a44 44 0 00-4.66 8.05c-.88 1.8-1.18 3.87-2 5.74-1.82 4.37-3.82 8.66-5.64 13-1 2.31-1.72 4.72-2.49 7.11-.35 1.09.07 1.53 1.2 1.56a1.11 1.11 0 01.67.2 7.28 7.28 0 005 1.43c2.31-.1 4.61-.38 6.91-.45a17.59 17.59 0 006.76-1.25 10.09 10.09 0 012.64-.39c-1.24 1.31-2.52 2.5-3.61 3.84a7.78 7.78 0 000 9.11 2.64 2.64 0 002.43 1.26c.82-.12 1.77-.35 1.81-1.56 0-.27.36-.59.64-.76a40.75 40.75 0 013.55-2.09c1.94-1 4.11-.63 6.17-.87 2.42-.29 4.77.29 7.14.57.47.06.93.28 1.4.35a12.54 12.54 0 002 .16c.44 0 .87-.19 1.31-.23a19.61 19.61 0 003.09-.3c1-.28 1.94-1 3-1.32 2.89-.79 5.76-1.13 8.19 1.3a1.92 1.92 0 001.18.42 1.33 1.33 0 001.44-1.61 4.52 4.52 0 00-1.48-2.9 1.55 1.55 0 01-.4-1.17 3.54 3.54 0 01.47-1.29 6 6 0 00-.16-5.52L97 87.92a15.14 15.14 0 011.5-1.41c1.65-1.22 2.35-3.05 3.23-4.78 1-1.91.57-4 .74-6a1.5 1.5 0 00-.39-1.16zm-52 9.77l4.63-6.48H55c.16 2.12.32 4.24.48 6.45zm32.61-7.17c-.53 4.3-1.34 8.57-2 12.86-.24 1.6-.3 3.23-.5 4.84a9.89 9.89 0 01-.48 1.58l-7.24-4.35a7.54 7.54 0 01.85 0 1.9 1.9 0 002.42-1.28 14.28 14.28 0 00.87-7.34c-.24-2.2-1.7-3.11-4.12-3.77-1.63-.44-2.16-.27-3.85.48l-6.57-13.82c7.09-.29 14.06-.22 21 2.27-.07 2.71-.07 5.64-.41 8.53zm16.39-3.62a8.6 8.6 0 01-1.38 3.06c-2.27 2.74-2.1 5.56-.66 8.53l.21.4C93 89.1 88.24 92 84.48 96.1c.25-1.39.57-2.78.75-4.18.34-2.74.62-5.49.9-8.24.2-1.92.46-3.85.52-5.78a81.63 81.63 0 000-8.85A3.67 3.67 0 0188 65.69c1.89-1.7 3.7-3.51 5.69-5.1a11.21 11.21 0 013.41-1.69c1.77-.59 3.61-1 5.57-1.47-.88 3.9-1.73 7.62-2.56 11.34-.35 1.59-.6 3.23-1.06 4.78zm23.42 30.09c-2.59-2.31-8.4-2.35-10.58-.84a29.75 29.75 0 00-4.64 4 12.77 12.77 0 00-1.83 3.28c-1.49 3.14-2.25 6.27-.75 9.74a10.73 10.73 0 003.2 4.4 5.37 5.37 0 005.1 1.23c3.62-1.32 7-3.14 9.41-6.28 1.82-2.38 3.66-4.85 3.42-8.36.22-2.81-1.1-5.16-3.36-7.17zM56 109.16c-3.18-1-6.44-1-9.36.84a48.94 48.94 0 00-4.88 3.89 2.34 2.34 0 00-.68 1.18 55.77 55.77 0 00-.91 4 5.05 5.05 0 00.68 3.56c.79 1.28 1.65 2.52 2.48 3.78a9.5 9.5 0 008.14 4.31c2.94.1 4.73-.35 6.08-2.2a38.66 38.66 0 003.79-6.69c.53-1.15.37-2.6.56-3.91a8 8 0 00-5.9-8.76zm36.6 12.67c-.31-1.84-.65-3.76-2.23-4.93a10.62 10.62 0 00-8.56-2c-3.72.71-7.88 5.13-8.45 9.48-.09.67-.24 1.33-.33 2a7.64 7.64 0 001.31 6.23c2.46 3.06 6.44 5.18 10.75 3.69A10.66 10.66 0 0092 129a28.37 28.37 0 00.71-5.66h-.11a10.29 10.29 0 000-1.51zM25 100.57c-3.6.48-6.47 1.86-8 5.32a1.59 1.59 0 01-.37.52 6 6 0 00-1.5 4.66c.19 1.24.41 3 .74 4.74s1.65 2.59 2.87 3.59c3.14 2.59 6.57 2.45 10.41.66 3.4-1.58 5.13-4.68 6-8.23 1.19-5.39-4.02-12.09-10.15-11.26zm110-15.32a25.79 25.79 0 00-1.39-2.91 6.44 6.44 0 00-4.89-3.68 9.33 9.33 0 00-5.81 1.06 5.55 5.55 0 01-1.45.55 4.5 4.5 0 00-2.63 1.59 11.51 11.51 0 00-2.61 7 6.83 6.83 0 001.31 4.6 2.85 2.85 0 01.26.59 4.9 4.9 0 002.52 2.83 11.74 11.74 0 008.29.69 10.32 10.32 0 007-9.4 20.85 20.85 0 00-.67-2.92z" fill="#7f82be"/><path class="cls-3" d="M102.67 57.43c-.88 3.9-1.73 7.62-2.56 11.34-.35 1.59-.6 3.21-1.06 4.78a8.6 8.6 0 01-1.38 3.06c-2.27 2.74-2.1 5.56-.66 8.53l.21.4C93 89.1 88.24 92 84.48 96.1c.25-1.39.57-2.78.75-4.18.34-2.74.62-5.49.9-8.24.2-1.92.46-3.85.52-5.78a81.63 81.63 0 000-8.85A3.67 3.67 0 0188 65.69c1.89-1.7 3.7-3.51 5.69-5.1a11.21 11.21 0 013.41-1.69c1.77-.59 3.61-.96 5.57-1.47zM68.64 80.19l-6.57-13.82c7.09-.29 14.06-.22 21 2.27-.13 2.71-.09 5.64-.44 8.53-.53 4.3-1.34 8.57-2 12.86-.24 1.6-.3 3.23-.5 4.84a9.89 9.89 0 01-.48 1.58l-7.18-4.35a7.54 7.54 0 01.85 0 1.9 1.9 0 002.42-1.28 14.28 14.28 0 00.87-7.34c-.24-2.2-1.7-3.11-4.12-3.77-1.63-.44-2.16-.27-3.85.48z"/></svg>
