<svg xmlns="http://www.w3.org/2000/svg" id="Ebene_1" data-name="Ebene 1" viewBox="0 0 141.73 141.73"><defs><style>.cls-1{fill:none;stroke:#feebd4;stroke-linecap:round;stroke-miterlimit:10;stroke-width:7.58px}</style></defs><path class="cls-1" d="M110.68 48.37a50.27 50.27 0 11-92 28.11A49.63 49.63 0 0119 71M42.85 33.53a50.38 50.38 0 0145.71-3.37"/><path d="M110.8 76.06c-1.33-.27-2.68-.48-4-.69-.46-.07-.65-.25-.65-.75 0-2.22.13-4.45 0-6.66-.17-2.5-.49-5-.9-7.48a3.66 3.66 0 00-4-3.23c-.27 0-.83-.31-.84-.5a4.43 4.43 0 01.77-3.38 8 8 0 002.13-4.32 39.84 39.84 0 00.29-6.36c-.06-1.13-.81-2.21-1.16-3.34-.84-2.75-3-3.84-5.53-4.39C92.6 34 89 36 85.35 37.71a5.41 5.41 0 00-2.52 3.42c-.34 1-1.36 1.95 0 2.94-.16 1 .73 1.41 1.09 2.12a3.92 3.92 0 01-.07 4.33c-.74 1.07-.48 1.65.62 2.39a3.56 3.56 0 01.87 1.22c.13.21.13.5.24.73a16.61 16.61 0 011 2.16 1.2 1.2 0 001.07 1c1.22.23 2.43.49 3.64.77a3.7 3.7 0 01.76.4c-.22.3-.37.75-.66.88a37.2 37.2 0 01-3.57 1.32c-2.56.8-5.21 1.39-7.71 2.35a26.4 26.4 0 01-12 1.46c-3.18-.27-6.26-.1-9.12 1.56a1.45 1.45 0 01-1.26-.11 21.78 21.78 0 00-5.44-2.76c-1.69-.57-3.37-1.15-5-1.88a6.23 6.23 0 00-4.71-.39 17.49 17.49 0 01-2.17.49 1 1 0 01-.68 0c-.78-.55-1.53-1.16-2.35-1.8.24-.16.44-.28.62-.41a8.15 8.15 0 002-1.51 3.86 3.86 0 000-4c-.58-1.16-.73-2 0-2.93a4.24 4.24 0 00.39-.7 8.25 8.25 0 01-1.06-.82 2.51 2.51 0 01-.65-1c-.57-2-1-4-1.64-5.85-.78-2.13-.9-2.09 1.2-2.84a3.06 3.06 0 00.24-.25 5.14 5.14 0 00-1.42-.72c-2.54-.34-5.1-.6-7.89-.92l1.8-2.23c-1.29.43-2.68.08-3.66 1.16-.07.08-.44 0-.53-.07-.65-.78-1.49-.68-2.46-.61l1 1.49a12.92 12.92 0 00-2.32-.17 11.9 11.9 0 00-2.31.79l.09.27c1.11-.12 2.24-.43 3.17.09a52.48 52.48 0 00-3.58 4.12c-2.72 3.86-3.14 7.48-.89 11.39a4.44 4.44 0 001.09 1.2c.57.44 1.28.73 1.81 1.21a11.88 11.88 0 004.22 2.56 5.24 5.24 0 011.45.83 1 1 0 01.35 1.39 20.18 20.18 0 00-1.23 2.83 4.24 4.24 0 00-.17 2.22c.42 1.66 1.16 3.23 1.58 4.89a98.84 98.84 0 012.27 9.85 71.4 71.4 0 01.39 8.43 21.24 21.24 0 002.49 9.62 45.15 45.15 0 006.14 8.14 1.8 1.8 0 01.42 1.72 9 9 0 01-4.16 6c-1.41.85-3 1.47-4.38 2.3-2.75 1.61-3.75 4.22-2.5 6.81a40.08 40.08 0 003.46 5.86 6.54 6.54 0 002.76 2.11 11.35 11.35 0 007.5.31 5.81 5.81 0 003.51-2.56 2.46 2.46 0 00-.86-3.67 8.9 8.9 0 00-2.32-.82 21.19 21.19 0 00-2.41-.35l-.35-.44a2.63 2.63 0 00.84-.33 31 31 0 006.81-8.14c1.68-3 2.8-6.21 2-9.69-.88-4-2-8-3-12.05-.1-.42-.07-.64.37-.82 1.62-.66 3.22-1.36 4.82-2L56 90.46c0 .55.11.92.11 1.29 0 4.74-.06 9.49 0 14.24a43.5 43.5 0 00.64 6.43c.45 2.64 2.51 3.6 4.91 2.45a6 6 0 001.07-.62c2.65-2 5.33-4.06 7.91-6.19a8.85 8.85 0 003-3.79 3.38 3.38 0 00-.74-3.55 2.64 2.64 0 00-3.2-.57c-1.59.69-3.09 1.59-4.62 2.41-.21.12-.41.27-.81.53.15-.88.3-1.5.38-2.14.27-2.23.63-4.46.74-6.71a21.12 21.12 0 00-1.16-9.35 4.62 4.62 0 00-3-2.94 20.51 20.51 0 00-10.55-.31c-.57.15-.7-.08-.7-.55v-2.58a1 1 0 00-.78-1.12l-2.87-1a1.09 1.09 0 01-.9-1.37.86.86 0 01.27 0c3.19.68 6.37 1.36 9.55 2.06 1.07.24 2.13.52 3.19.81 2 .56 4 1.26 6 1.68a6.18 6.18 0 004.1-.39c2.36-1.18 3.34-3.4 4.46-5.51.32-.62.6-.85 1.26-.78a25.83 25.83 0 003.28.23c2.19 0 4.38-.1 6.56-.28a45.73 45.73 0 005.32-.84c1.48-.3 2.91-.81 4.36-1.23.47-.14.94-.26 1.19.64-1.11.45-2.22 1-3.38 1.34-.69.22-1.19.41-1.11 1.29a4.71 4.71 0 01-.16 1.67 1.25 1.25 0 01-.71.75c-1.46.47-3 .77-4.41 1.31a16.24 16.24 0 00-7.12 5c-1.08 1.32-1.93 2.74-3.59 3.54-1.11.53-2.18 1.72-1.71 3a2 2 0 01-.93 2.73 2 2 0 00-.25.25c-.88 1-.79 1.77.42 2.19a34.38 34.38 0 004.7 1.18 2.37 2.37 0 011.43.74c1.26 1.42 2.54 2.82 3.86 4.18.9.93.93.9.22 2-.23.38-.46.75-.67 1.15-1.16 2.18-2.17 4.41-1.94 7a4.86 4.86 0 003.21 4.2c1.55.5 3.23-.15 4.53-1.7a19.15 19.15 0 004-9.17A5.74 5.74 0 0090 98.75a18.21 18.21 0 01-1.9-2.86 37.06 37.06 0 014.19-1.42c.75-.16 1.66-.41 2.37.44 3.42 4.13 7.67 5.26 12.75 3.45.54-.19 1.09-.36 1.64-.54l.14.25c-.36.33-.7.69-1.08 1a8.27 8.27 0 01-4 1.47c-.37 0-.82.14-.52.65 1.18 1.93.64 3.77-.43 5.43-1.22 1.89-2.72 3.59-4 5.42-1.44 2-2.82 4.09-4.16 6.18a2.64 2.64 0 00.28 3.62c.46.46.77 1.06 1.21 1.54 1.62 1.76 3.21 3.56 4.94 5.21a7.35 7.35 0 004.79 2.11c2 .08 3.58-.81 3.15-3.16a7 7 0 00-.26-1.12 21.76 21.76 0 00-3.59-6.3.86.86 0 010-1.24c1.81-2.45 3.67-4.87 5.33-7.42a15.87 15.87 0 002.69-7.35 16.41 16.41 0 00-1.06-7.24 1 1 0 01.34-1.35 40 40 0 004-4c2.34-2.78 4.83-5.29 8.69-6.39a30 30 0 00-2-2.54c-3.44-3.59-7.85-5.54-12.71-6.53zm9.71-35.27l.11-.25 3.21.69.17-.23c-2.6-3.68-6.55-5.55-10.68-7.62l2-1c-.1-.15-.13-.22-.17-.24-4.49-1.86-8.81-.41-12 3a1 1 0 000 .94c.36.77.82 1.5 1.22 2.26a3.28 3.28 0 002.27 1.66 8.52 8.52 0 012.84 1.19c1.9 1.39 3.7 2.94 5.51 4.46a12.73 12.73 0 008.01 3.17 17.41 17.41 0 005.92-1 29.24 29.24 0 002.75-1.23c-4.62-.47-7.8-3.31-11.16-5.8z" fill="#7f82be"/></svg>
