<svg xmlns="http://www.w3.org/2000/svg" data-name="Ebene 1" viewBox="0 0 141.73 141.73"><path d="M106.41 40.93a50.26 50.26 0 11-60.36-8.18" fill="none" stroke="#feebd4" stroke-linecap="round" stroke-miterlimit="10" stroke-width="7.58"/><path d="M61.89 98.48l-2.89.77a11.2 11.2 0 01-3.17.77c-2.65-.1-5.4.49-7.9-1-.83-.49-1.82-.73-2.67-1.22a8.08 8.08 0 01-1.52-1.35 8.35 8.35 0 01-.63-.81c-.92-1.16-.47-2.5-.41-3.76.25-5 .58-10.06.84-15.09a3.14 3.14 0 01.82-1.94 10.44 10.44 0 013.82-3 16.38 16.38 0 011.82-.57l.63-2.41-1.79.32c-1.41.25-2-.37-1.61-1.73a25.66 25.66 0 001-3.33 13.12 13.12 0 00-.12-3.06c-.09-.92-.26-1.83-.37-2.75-.3-2.57-.61-5.13-.87-7.71a17.9 17.9 0 01-.07-2.93 2.57 2.57 0 01.59-1.22A12.19 12.19 0 0150 44.21a38 38 0 007.31-6.5 12.63 12.63 0 002.37-3.86A12 12 0 0163.25 29a7.61 7.61 0 014.92-1.72c2.83-.08 4.82-1.62 6.65-3.52a4.15 4.15 0 01.39-.36 38 38 0 01-1.88-3.4 16.14 16.14 0 01-1.81-6.82 2.58 2.58 0 00-.62-1.5c-.77-.94-.43-2-.23-2.88a10.08 10.08 0 013.9-6.4 7 7 0 00.93-.8A5.46 5.46 0 0180.05 0a40.52 40.52 0 017.09 1 6.18 6.18 0 014.24 3.7 16 16 0 01.84 4 4.17 4.17 0 01-.36 1.65.71.71 0 01-.5.41c-.64.08-.79.46-.8 1a20.11 20.11 0 01-1.24 5.94c-.17.51-.36 1.23-1.18 1.33-.15 0-.31.46-.36.73A4.59 4.59 0 0185.86 23a6.66 6.66 0 01-1.49.57l-1.72.65c-.32.11-.66.2-1.19.36.37.82.7 1.6 1.06 2.37.22.45.47.9.72 1.34a.76.76 0 00.27.29c1 .44 1.95.93 3 1.27a4 4 0 012.78 4.07 19.78 19.78 0 00.71 5.24c.45 1.92 1.22 3.77 1.79 5.68A64.45 64.45 0 0194.61 66a2.59 2.59 0 01-.06.74c-.42 1.14.24 1.75 1 2.48 1.18 1.14 2.22 2.43 3.33 3.65.54.59 1.11 1.15 1.63 1.76a1.64 1.64 0 01.42.84c.23 2.09.38 4.2.61 6.3a43.53 43.53 0 01-.41 11c-.36 2.42-.87 3.38-3.84 3.18s-5.76-.32-8.74-.48a5.63 5.63 0 00.19.66c1.06 2.39 2 4.85 3.22 7.14a45.61 45.61 0 003.79 5.61c1.87 2.47 3.85 4.86 5.81 7.28a20.5 20.5 0 011.82 2.15 10.86 10.86 0 01.94 2.48 11.46 11.46 0 01.22 1.6 19 19 0 016-2 4.91 4.91 0 013 .37 1 1 0 01.52.62c.1.76.11 1.53.15 2.23l.22-.17.14.1a10.25 10.25 0 01-1 1.43c-3 3.23-6.28 6.21-10.55 7.78-.23.09-.46.17-.7.24-1.54.42-3.07.94-4.64 1.24a24.35 24.35 0 01-3.73.26c-1.57 0-2.17-1.26-3-2.27-.15-.2 0-.69.1-1 .34-.93.18-1.3-.78-1.54l-2-.45a8.9 8.9 0 00.55-2.47 16.2 16.2 0 00-.7-4.22c-1.72-5.11-3.63-10.15-5.33-15.27a133.38 133.38 0 00-5.59-13.08c-.79-1.72-1.44-3.51-2.16-5.28l-.22-.4c-.82 4.29-2.75 8-4.51 11.76-.84 1.8-2.34 3.29-3.54 4.94-.29.41-.53.85-.81 1.27a6.41 6.41 0 01-.58.79c-1.82 1.92-3.66 3.8-5.44 5.75-.47.51-.66 1.25-1.09 1.81-1.33 1.72-2.71 3.41-4.06 5.11a4 4 0 00-.28.3 10.29 10.29 0 01-1.74 1.76c1.89 2.51 2.36 5.67 3.84 8.37.75 1.37 1.36 2.81 2 4.21a2.25 2.25 0 01-1.75 3.42 12.51 12.51 0 01-5.69-.65 8.51 8.51 0 01-5.93-5.58c-1.05-2.72-2-5.46-3-8.2a13.35 13.35 0 01-.37-2.15h-3.19c-.41 0-1-.16-1.16-.43s.12-.87.21-1.32l.05-.06c3.92-3.87 7.78-7.81 11.8-11.58 2.27-2.14 4.8-4 7.26-6 1-.8 2.1-1.51 3.19-2.22.32-.21.76-.22 1.1-.42a6.05 6.05 0 00.89-.73zm2.24-30.18c-.1-2.12-.25-4.15-.27-6.18V50.44a3.37 3.37 0 01.26-1.34 2.19 2.19 0 00.09-1.79c-.34-.89-1-1.1-1.66-.46-1.28 1.18-2.51 2.41-3.86 3.5a5.29 5.29 0 00-2 4.42c0 1.51-.29 3-.44 4.53a2 2 0 000 .8c.83 2.38 1.77 4.74 2.49 7.16.41 1.41 1.15 2.87.51 4.22 1.16 1 2.25 1.86 3.36 2.75a.57.57 0 00.49.1.6.6 0 00.18-.49c-.12-.83-.22-1.68-.41-2.49-.35-1.65-.14-2.23 1.26-3.05zm17.63 7.45a26.94 26.94 0 002.4-2.22c1.14-1.32 2.18-2.72 3.23-4.11a1.48 1.48 0 00.25-1.75 2.52 2.52 0 01-.09-1.59c.18-.78.55-1.53.8-2.3a2.55 2.55 0 00.15-1.08c-.27-1.86-.63-3.71-.88-5.57A22.73 22.73 0 0086 51c-.17.74-.3 1.34-.45 1.94-.5 2-1.09 3.93-1.48 5.93s-.67 4.25-1 6.37c-.19 1.27-.42 2.51-1.62 2.83-.18.83-.3 1.46-.46 2.08 0 .18-.24.33-.25.5a13.39 13.39 0 001.02 5.1zm-35.7-.44l.11.21a17.57 17.57 0 001.68.58c1.1.28 2.21.55 3.33.76 1.48.3 3 .54 4.46.8a.71.71 0 00.32 0 11.11 11.11 0 011.65-.57 8.24 8.24 0 003.91-1.59c-1.07-.74-2.08-1.45-3.1-2.14a1.06 1.06 0 00-.62-.17c-1 .1-1.91.28-2.86.34a6.74 6.74 0 01-2.54-.08 3.9 3.9 0 00-3.49.66 2.55 2.55 0 01-.38.29c-.82.29-1.64.6-2.47.91zM92.66 71a2.05 2.05 0 01-2.49.83 1.73 1.73 0 00-2 .47c-.63.82-1.29 1.6-1.91 2.42a2.77 2.77 0 00-.28.71 4 4 0 00.74.15c3 0 5.93-.08 8.89-.14a8.27 8.27 0 001.21-.12c.61-.11.83-.59.47-1a15.77 15.77 0 00-2.44-2.46 8.85 8.85 0 00-2.19-.86zM42.75 94.58H43v-3.71c-.1 1.24-.18 2.47-.25 3.71z" fill="#7f82be"/></svg>
