<svg xmlns="http://www.w3.org/2000/svg" width="423" height="269"><defs><clipPath id="c"/><filter id="a" x="-9" y="-6" width="441" height="287" filterUnits="userSpaceOnUse"><feOffset dy="3"/><feGaussianBlur stdDeviation="3" result="b"/><feFlood flood-opacity=".161"/><feComposite operator="in" in2="b"/><feComposite in="SourceGraphic"/></filter><style>.c{fill:#E1E1E1}.d{fill:#E1E1E1}.e{fill:#EEEFEE}</style></defs><g transform="translate(0 -.182)"><path class="c" d="M251.717 91.297v-.059s-.354.059 0 .059z"/><path class="d" d="M285.966 200.15c-.236-3.012-1.506-52.73 2.244-58.724s6.112-7.588 7.263-13.995c2.775-15.736-2.864-63.873-2.864-63.873-.148 0-.472 0-1.063-.044-1.889-.112-.413 51.192-.915 55.207-.5 3.986-2.746 2.244-3.011 1.24-.236-1-2.657-56.453-2.657-56.453-.207.03-1.831-.041-1.831-.041s.531 55.52 0 56.583c-1.742 3.513-3.1-.354-3.011.236-.591-2.067-1-56.772-1-56.772s-1.771.03-1.978 0c0 0-1.771 55.444-2.008 56.447-.266 1-2.51 2.746-3.011-1.24-.5-4.015.059-55.337-1.831-55.225-.591.035-.915.047-1.063.047 0 0-4.665 48.181-1.742 63.888 1.181 6.407 3.484 8 7.233 13.995s2.51 55.712 2.244 58.724c-.236 3.011-5.728 59.728-6.23 61.706-.5 2.008-8.739 26.247 10.747 25.745 19.486.5 11.249-23.737 10.747-25.745-.5-1.978-6.023-58.694-6.259-61.706zM390.92 230.293c-.177-2.008-1.151-35.4 1.712-39.444 2.834-4.015 4.635-5.078 5.521-9.389 2.1-10.57-2.185-42.9-2.185-42.9-.118 0-1.771-.089-2.244-.089-1.417-.089.5 34.78.118 37.466s-3.336 2.923-4.428.472c-.3-.65-.473-37.968-.473-37.968-.148.03-3.425 0-3.425 0s.3 37.142.089 37.88c-.768 2.746-4.133 2.3-4.517-.384-.384-2.657.8-37.555-.65-37.5-.443.03-2.126.118-2.244.118 0 0-3.543 32.359-1.328 42.9.886 4.281 2.657 5.373 5.492 9.389 2.864 4.045 1.919 37.437 1.712 39.444-.177 2.008-3.071 41.747-3.4 42.869s-5.551 14.7 6.82 14.437c12.4.266 7.145-13.315 6.82-14.437-.29-1.116-3.209-40.856-3.39-42.864z"/><path class="c" d="M273.772 102.896v.059c.354 0 0-.059 0-.059z"/><path class="d" d="M329.012 276.263c.148 8.149-16.268 20.815-23.531 0-.8-13.493 8.444-84.262 6.2-112.34a5.852 5.852 0 00-.531-1.8h13.67c.472 11.986 4.074 107.734 4.192 114.14z"/><path class="e" d="M324.819 162.122h-13.67c-1.535-3.336-5.964-7.765-8.474-10.717-3.011-3.484 5.816-116.754 8.3-118.254 0 0 6.112-19.362 13.788-13.682v141.413s.03.443.059 1.24z"/><path class="d" d="M366.478 136.643c7.47-8.355 16.858-21.937 17.3-38.027.768-26.9-17.537-41.458-26.513-41.458h-1.712c-8.975 0-27.28 14.561-26.542 41.458.472 16.681 10.57 30.705 18.187 38.972a121.358 121.358 0 012.569 3.838c3.72 5.993 2.48 55.712 2.244 58.724-.266 2.982-5.757 59.728-6.259 61.706-.5 2.008-8.739 26.247 10.747 25.745 19.486.5 11.249-23.738 10.747-25.745-.5-1.978-5.993-58.724-6.259-61.706-.236-3.012-1.476-52.73 2.273-58.724 1.211-1.949 2.274-3.455 3.218-4.783zM420.715 212.845c3.1-4.133 8.474-10.835 8.68-18.777.354-13.286-8.237-20.49-12.459-20.49h-.8c-4.222 0-12.814 7.2-12.459 20.49.207 8.237 5.9 15.175 9.035 19.25.325.531.679 1.151 1.063 1.89 1.565 2.952 1.033 27.517.945 28.993-.118 1.476-2.391 29.495-2.6 30.5-.207.974-3.632 12.961 4.458 12.7 8.09.266 4.665-11.721 4.458-12.7-.207-1-2.48-28.993-2.6-30.5-.089-1.476-.62-26.04.945-28.993.5-.974.945-1.712 1.329-2.362z"/></g></svg>
