<svg xmlns="http://www.w3.org/2000/svg" width="438" height="275"><defs><clipPath id="c"/><filter id="a" x="-9" y="-6" width="456" height="293" filterUnits="userSpaceOnUse"><feOffset dy="3"/><feGaussianBlur stdDeviation="3" result="b"/><feFlood flood-opacity=".161"/><feComposite operator="in" in2="b"/><feComposite in="SourceGraphic"/></filter><style>.a{fill:#e7e7e7}</style></defs><g transform="translate(41.429 475)"><path class="a" d="M289.225-436.36a.844.844 0 01-.936.272c-1.128-.272-1.4.49-1.4 3.7 0 2.07.11 3.05.385 3.35a.857.857 0 001.459.082 1.651 1.651 0 011.046-.327c.991.054 1.376-.953 1.376-3.649 0-2.4-.385-3.622-1.128-3.758a1.046 1.046 0 00-.802.33zM305.492-436.169a8.242 8.242 0 00-2.037.98 3.825 3.825 0 00.743 6.237c.881.436 1.046.409 2.862-.136a10.435 10.435 0 002.807-1.28c2.229-1.879 2.229-4.712-.055-5.855-1.237-.627-2.366-.627-4.32.054zM325.501-435.216c-.3.654-.358.681-.688.218-.358-.463-.385-.463-.908.054-.633.6-2.092 6.073-1.844 6.754a1.228 1.228 0 001.706.163c.083-.163.523-.272.936-.272a1.7 1.7 0 001.1-.354c.5-.626 1.211-6.073.853-6.727q-.577-1.102-1.155.164zM271.141-433.718c-.11.381-.3.49-.605.381-.8-.327-.936-.272-1.321.409-1.1 2.1.33 7.653 1.706 6.536a1.181 1.181 0 00.413-.763c0-.354.083-.327.523.055.3.272.661.408.826.327 1.211-.763.8-6.536-.523-7.244-.719-.382-.853-.355-1.019.299zM343.199-431.648c-.44.6-.55.654-.578.272-.028-1.852-2.422 1.961-2.835 4.521-.3 1.852.688 3.023 1.679 2.043a1.922 1.922 0 011.073-.354c.908 0 1.376-.79 1.734-3.05.634-3.732.193-5.094-1.073-3.432zM252.977-429.605a1.15 1.15 0 01-.881.354c-1.128 0-1.321.708-.743 2.914.771 3.023 1.9 4.9 2.642 4.439a1.252 1.252 0 00.275-.872v-.708l.661.6c.385.354.8.545.963.436.716-.436.138-4.6-.908-6.618-.468-.927-1.569-1.226-2.009-.545zM361.09-427.1a.854.854 0 01-.826.245c-.936-.245-3.33 3.459-3.771 5.855-.275 1.389.963 2.288 1.789 1.307a1.235 1.235 0 01.991-.245c.523.109.771-.054 1.211-.763a26.3 26.3 0 002.009-5.556c.138-1.088-.743-1.635-1.403-.843zM236.27-424.295a2.758 2.758 0 00-.193 1.008v.844l-.44-.626a1.442 1.442 0 00-.991-.6c-.5 0-.523.136-.385 1.607a9.64 9.64 0 001.762 4.712c.523.572 2.009.654 2.009.136 0-.245.3-.327.991-.245.991.109.991.109.8-.735a24.757 24.757 0 00-2.092-5.12c-.553-.845-1.159-1.281-1.461-.981zM377.714-419.393c-.55.6-.688.654-.688.272 0-.245-.11-.463-.22-.463-.606 0-3.33 3.677-3.743 5.093a.854.854 0 001.459.79 1.04 1.04 0 01.963-.272c1.046.409 3.468-3.431 3.468-5.474-.001-.872-.359-.872-1.239.054zM286.968-419.148c-2.752.409-6.055 1.416-4.844 1.443a1.884 1.884 0 011.266.708c.826 1.008 2.752 5.8 5.009 12.255 1.073 3.132 2.312 6.7 2.725 7.871l.771 2.151-1.486 3.976c-2.807 7.517-4.541 11.874-5.615 14.162a20.478 20.478 0 00-1.073 2.56c0 .409 3.468.027 5.092-.572 1.541-.545 1.734-.817 2.725-4.058.743-2.369 2.587-6.618 2.89-6.618.385 0 2.917 6.972 3.3 9.151a3.842 3.842 0 00.771 1.934c.578.436 6.138.49 6.138.082 0-.163.44-.272.963-.272a2.367 2.367 0 00.963-.109c0-.136-2.422-6.781-4.789-13.1-3.248-8.688-3.193-9.859.936-20.017 1.982-4.848 3.908-8.688 4.707-9.423.55-.49.578-.49 1.073.082.358.463.523 1.334.661 3.677.22 3.568-.165 17.212-.826 28.977-.248 4.494-.385 8.633-.275 9.205.3 1.607.963 2.07 3.028 2.07a4.489 4.489 0 001.954-.272c.083-.163.523-.272.936-.272 1.459 0 1.459.082 1.954-10.213.716-14.6 1.651-26.771 2.339-29.985.5-2.315.826-2.86 1.6-2.587.523.191.606.463.688 1.961.138 2.778-1.266 15.006-3.688 31.646-.688 4.793-1.184 8.96-1.1 9.314.22.817.688.98 3.275 1.144 1.486.109 2.119.055 2.119-.163 0-.163.413-.3.963-.3.853 0 .963-.109 1.239-1.035.55-1.852 1.239-6.346 2.477-16.259 1.734-13.808 2.945-21.515 3.716-23.8a5.712 5.712 0 011.239-2.07 3.365 3.365 0 00.826-.98c0-.681-4.486-1.171-15.468-1.743-10.486-.545-12.633-.517-14.532.109-1.514.49-1.514.49-1.569 1.689-.083 2.043-3.138 11.411-3.716 11.411-.275 0-2.037-5.556-2.587-8.143a20.043 20.043 0 01-.33-3.976l.083-1.906-2.064-.055a33.027 33.027 0 00-4.464.35zM219.398-416.56c-2.725.871-3.716 2.342-3.248 4.793.248 1.389 2.34 3.486 3.22 3.268a9.706 9.706 0 003.826-1.416c2.092-1.443 2.725-3.459 1.624-5.229-1.128-1.825-2.752-2.26-5.422-1.416zM391.062-411.821c-1.872.6-2.477.98-2.945 1.879-.578 1.089-.3 2.4.881 4.167s1.4 1.8 4.9.545a3.236 3.236 0 002.119-3.077c0-2.998-2.037-4.413-4.955-3.514z"/><path class="a" d="M242.05-408.222a116.148 116.148 0 00-14.285 6.972c-1.6 1.008-1.6 1.035-1.046 1.5.881.708 1.239 2.478 2.2 10.458a4.339 4.339 0 010 1.852c-.33 0-5.5-4.957-6.908-6.618-1.046-1.253-1.294-1.716-1.156-2.26.22-.844-.11-.844-2.56 0-2.064.708-7.569 3.649-7.707 4.167-.055.163.33.436.853.626 1.9.626 7.707 5.011 14.12 10.676 4.514 4.031 5.2 4.848 5.7 7.054 1.156 4.929 2.477 16.15 2.2 18.574l-.165 1.607.881-.463c.468-.245.936-.381 1.018-.3.33.327 5.037-2.7 5.037-3.214a4.335 4.335 0 00-.413-1.2 52.568 52.568 0 01-1.927-8.851c-.165-1.5-.138-1.58.33-1.335a45.864 45.864 0 016.275 6.046c.716.953.963 1.525.826 1.906-.22.654-.055.681 2.064.082 1.184-.327 1.762-.354 1.954-.163.578.572.771 4.412.8 15.742 0 14.216.22 17.049 1.376 19.391a9.332 9.332 0 001.761 2.451 3.738 3.738 0 011.1 1.5 13.53 13.53 0 001.9 3c3.44 4.494 7.9 11.139 21.248 31.728l7.459 11.493-1.43 2.879c-1.762 3.54-2.037 4.984-2.037 10.921v4.6l-1.734 1.362c-.936.763-5.918 4.766-11.064 8.878s-11.064 8.824-13.156 10.431a39.551 39.551 0 00-4.239 3.595c-.55.844-.5.9 3.606 5.338 4.844 5.229 11.009 10.24 15.5 12.5 2.174 1.117 2.807 1.253 3.33.735a1.922 1.922 0 011.073-.354c.633 0 1.018-.381 2.45-2.506.936-1.389 3.688-6.1 6.083-10.485 4.541-8.225 8.23-14.6 10.6-18.22 1.486-2.315 1.789-2.424 3.083-1.089a4.271 4.271 0 01.963 2.1c.138.763 1.431 5.719 2.862 11.03 2.725 10.1 4.514 17.294 5.285 21.243a19.861 19.861 0 00.661 2.669c.275.436 4.266-.409 8.422-1.77 6.413-2.1 15.936-6.754 18.744-9.205l1.294-1.144-.55-1.2a59.113 59.113 0 00-3.853-5.719c-1.817-2.478-6.688-9.151-10.844-14.843l-7.569-10.376 1.046-2.152c2.45-5.12 2.917-8.987 1.624-13.427l-.661-2.288.55-1.144c.358-.681 4.156-4.929 9.5-10.54 4.9-5.147 19.569-20.644 32.588-34.452l23.629-25.088 9.413-17.267c15.413-28.3 19.9-37.093 19.9-39 0-.79-.688-2.369-1.046-2.369a2.705 2.705 0 00-.8.409 1.381 1.381 0 01-.991.272c-.743-.3-3.853 3.731-4.569 5.883-.385 1.171-3.633 4.358-12.138 11.983-11.725 10.485-22.211 19.391-21.909 18.6.275-.708 3.661-6.209 8.23-13.318 7.486-11.656 10.156-15.387 11.064-15.387.743 0 .716-.545-.055-1.253-1.128-1.035-4.789-3.1-5.5-3.1-.358 0-.633.163-.633.381 0 .3-.248.381-.881.272-.881-.109-.936-.054-1.789 1.716-1.6 3.323-13.019 21.9-19.679 31.973a43.989 43.989 0 00-2.973 4.9c0 .218.44.654.963 1.008.688.409.963.817.963 1.28 0 1.144-4.486 7.353-24.028 33.226-25.707 34.016-28.6 37.747-31.487 40.525-1.156 1.117-1.486 1.28-2.119 1.117-1.431-.354-1.706-.98-5.064-11.684-.771-2.4-1.789-5.638-2.257-7.217s-1.349-4.385-1.927-6.264-1.817-5.91-2.752-8.987-2.174-7.108-2.752-8.987-1.431-4.684-1.927-6.264c-3.936-12.936-3.468-12.119-10.514-17.7-5.752-4.548-15.909-13.127-17.422-14.707-.826-.844-.826-.872-.275-1.28a32.678 32.678 0 013.055-1.607c3.33-1.58 4.184-2.56 2.5-2.887-.33-.054-.716-.681-1.128-1.852-.358-.98-3.055-7-6.028-13.372-7.459-16.068-9.551-21.134-9.551-23.149a2.117 2.117 0 00-.193-1.144 8.135 8.135 0 00-2.392.55zm-5.835 5.774a7.784 7.784 0 011.486 1.362c1.789 2.424 16.294 33.117 16.294 34.506 0 .218-.11.381-.248.381-1.046 0-9.386-6.754-13.954-11.3-3.468-3.432-4.1-5.175-5.34-14.434-.881-6.536-.991-9.5-.44-10.322.55-.851 1.046-.878 2.202-.198zm63.194 136.8a2.511 2.511 0 01-.55 1.035l-.523.681-.826-.79c-.963-.9-1.073-1.634-.385-2.587l.44-.654.936.98a3.884 3.884 0 01.908 1.329zM203.737-406.592a11.071 11.071 0 00.3 1.089c.165.545.083.545-.661-.191-1.6-1.58-1.9-.654-.606 1.852.908 1.77 2.642 3.867 3.193 3.867.44 0 .771-.763.5-1.171-.083-.163.11-.082.5.163.991.708 1.349.572 1.349-.436 0-1.035-1.018-2.751-2.67-4.494-1.134-1.166-2.153-1.551-1.905-.679zM188.957-395.998a.728.728 0 000 .6c.138.381.083.409-.22.109-.55-.517-1.624-.409-1.624.163 0 .626 1.294 2.669 2.615 4.112 1.046 1.144 2.2 1.5 2.5.763.083-.245.44-.327.936-.245 1.844.272 1.239-1.607-1.321-4.14-1.4-1.389-2.394-1.852-2.886-1.362zM421.889-389.897a4.382 4.382 0 01-1.156.381c-.826.191-3.22 2.369-4.046 3.731-.743 1.2-.771 2.152-.055 2.152a.968.968 0 00.716-.272c.083-.163.55-.272 1.018-.272.661 0 1.266-.436 3.275-2.4 2.725-2.669 3.138-3.595 1.569-3.568a3.242 3.242 0 00-1.321.248zM175.47-384.26a1.061 1.061 0 00-.193.681c0 .463-.055.463-.688.055-1.624-1.062-1.651.654-.028 2.805 1.9 2.478 3.908 3.7 4.211 2.56.11-.463.248-.517.688-.272a1.325 1.325 0 00.936.136c1.1-.409-.33-2.887-2.862-4.929-1.514-1.254-1.761-1.363-2.064-1.036zM434.549-377.37a4.514 4.514 0 01-1.128.381c-.8.163-2.2 1.2-4.294 3.214-2.312 2.179-1.872 3.023 1.073 2.1a10.2 10.2 0 004.844-2.832c1.707-1.91 1.349-3.953-.495-2.863zM163.167-370.235c0 .463-.083.517-.33.272-.385-.381-1.239-.436-1.459-.054-.3.463.633 1.8 2.477 3.486 1.927 1.8 3.055 2.315 3.551 1.634a1.589 1.589 0 011.128-.381c1.872.054.853-1.852-2.257-4.167-2.041-1.523-3.11-1.798-3.11-.79zM444.678-362.775a15.675 15.675 0 00-1.927.817 35.671 35.671 0 00-4.9 3.268 5 5 0 00.44.98c.33.626.55.79 1.018.681a12.993 12.993 0 003.963-1.416c.716-.436 1.762-1.117 2.312-1.525 1.046-.817 2.037-2.506 1.762-2.969-.223-.351-1.43-.296-2.668.164zM154.112-356.917a5.256 5.256 0 00-3.468 3 2.374 2.374 0 00-.138 2.233c.385 1.28 2.2 3.186 3.028 3.186a4.013 4.013 0 001.156-.245 11.019 11.019 0 011.349-.409 8.015 8.015 0 003.551-3.159 1.755 1.755 0 00-.028-1.689 7.421 7.421 0 00-2.752-3.1c-.909-.471-.799-.471-2.698.183zM174.727-356.208a3.134 3.134 0 01-1.321.49 2.483 2.483 0 00-1.459.953 17.337 17.337 0 00-2.725 4c0 .191.413.517.936.735a10.154 10.154 0 012.229 1.552c2.037 1.852 7.046 8.225 6.716 8.524a60.4 60.4 0 01-8.34-1.77c-2.395-.708-3.193-1.226-3.193-2.043 0-.953-.44-1.008-1.184-.109-.661.79-.688.79-.853.191-.165-.572-.22-.572-1.018.354-1.376 1.58-5.67 8.906-5.367 9.178.055.082.468-.054.936-.3.44-.218.881-.354.936-.272.083.082.606-.082 1.156-.327.881-.436 1.239-.436 3.248-.136 5.285.763 17.037 3.595 19.762 4.766 2.45 1.008 12.331 12.855 12.826 15.387.22 1.062.5 1.226 1.266.79a1.781 1.781 0 011.018-.245c.55.109 1.6-.98 2.642-2.723 1.4-2.4 1.431-2.615.3-3.077a10.6 10.6 0 01-2.395-1.852c-2.174-2.233-5.174-6.318-4.872-6.618.385-.381 8.119 1.825 9.11 2.587.826.654 1.376.681 1.817.163a.935.935 0 01.881-.245 1.38 1.38 0 001.1-.327 33.466 33.466 0 003.551-5.529c0-.381.055-.381-6.606-1.552-6.633-1.2-12.909-2.669-14.725-3.513a14.862 14.862 0 01-2.56-1.607c-2.34-1.961-9.853-11.084-12.028-14.652-.743-1.171-.963-1.825-.853-2.288.225-.84-.133-1.031-.931-.485zM451.779-349.318c-3.688 1.389-5.422 4.112-4.184 6.482.991 1.906 2.422 2.288 5.284 1.443 2.037-.6 3.138-1.443 3.661-2.832.523-1.335-.413-3.677-1.9-4.929-.986-.818-1.072-.818-2.861-.164zM434.604-346.571c-.3.463-.44.49-.771.218s-.578-.136-1.431.763c-1.459 1.552-3.22 2.642-13.129 8.252-13.569 7.653-25.734 14.734-25.734 14.952a18.23 18.23 0 002.835 4.058c.605.572.771.6 1.349.272a2.79 2.79 0 011.046-.354 21.727 21.727 0 003.578-2.07c5.532-3.622 23.615-13.862 29.836-16.913 2.7-1.307 2.835-1.362 4.624-1.2 1.6.136 1.844.109 1.706-.245s0-.409.991-.245c.688.109 1.128.082 1.046-.054-1.734-3-4.239-7.163-4.569-7.544-.551-.622-.936-.59-1.377.11zM143.709-339.813c-.11.463-.22.49-.8.245-.5-.245-.771-.218-1.018.027-.826.817 1.459 2.86 4.294 3.84 1.321.463 1.679.49 2.2.218a3.628 3.628 0 011.266-.409 2.031 2.031 0 001.1-.49c.413-.408.358-.517-.413-1.2a26.541 26.541 0 00-6.248-2.751c-.134.002-.299.247-.381.52zM439.751-337.308c-.22.408-.385.49-.606.272-.5-.49-.688-.354-1.431.79-1.239 1.934-5.973 4.6-26.7 14.979-6.963 3.486-12.716 6.4-12.771 6.455a20.553 20.553 0 002.147 4.412c.468.6.523.626 1.706.218.688-.245 8.532-4.031 17.45-8.415 15.743-7.762 21.854-10.621 22.707-10.649a1.541 1.541 0 00.8-.381 1.1 1.1 0 011.073-.218c.661.163.688.136.523-.872a23.787 23.787 0 00-3.11-6.346c-.825-.953-1.348-1.035-1.788-.245zM462.761-331.207c-.138.027-1.018.3-1.927.545-3.688 1.062-6.606 3.1-5.7 4 .413.409 5.174-1.117 7.211-2.315 1.376-.817 2.2-1.661 1.927-1.906a2.872 2.872 0 00-1.511-.324zM136.47-322.928c0 .163-.413.3-.963.3-.523 0-.963.109-.963.272 0 1.334 6.358 4.058 7.018 3 .083-.163.523-.272.963-.272 1.844 0 1.321-1.362-.963-2.478-1.844-.904-5.092-1.421-5.092-.822zM467.385-314.186a20.412 20.412 0 00-5.78 1.77c-1.486 1.035-.358 2.233 1.651 1.77 3.991-.872 7.074-2.233 7.074-3.132 0-.3-.936-.735-1.376-.654-.083.028-.771.137-1.569.246zM131.653-305.688a.542.542 0 01-.688.3 2.015 2.015 0 00-.991.027c-1.266.49 2.587 2.615 4.707 2.615a5.258 5.258 0 001.569-.245 9.455 9.455 0 011.4-.409c1.128-.245.991-1.117-.33-1.77-1.456-.766-5.447-1.09-5.667-.518zM470.33-296.296c-2.532.436-5.78 1.716-5.78 2.288 0 .763 3.8.436 7.046-.6 1.817-.572 2.7-1.389 1.872-1.716a9.267 9.267 0 00-3.138.028zM129.589-288.014c-1.844.218-3.633.817-3.771 1.253-.193.517.908.926 3.5 1.226a8.429 8.429 0 005.229-.572.952.952 0 00.083-1.607 13.129 13.129 0 00-5.041-.3zM144.452-285.59c-.275 1.144-.413 1.334-.716 1.062a1.6 1.6 0 01-.385-1.117c0-2.451-1.184 1.552-1.486 5.093-.22 2.26.028 2.805.936 2.315a3.761 3.761 0 011.844-.191c1.872.191 10.321 4.385 10.652 5.283.248.572-1.1 1.226-4.184 2.015-3.44.9-5.532 1.008-6.578.327-.688-.463-.743-.463-1.1.109-.33.49-.5.545-.936.272-.826-.49-1.1.054-1.4 2.723-.3 2.587-.138 17.049.193 17.839.193.463.248.436.908-.055.468-.381.8-.463.991-.272.165.163.413.136.716-.136 1.1-.98 6.413-1.389 24.358-1.906 14.285-.408 17.45-.626 19.542-1.334l1.1-.381.083-2.7c.055-1.471 0-4.14-.083-5.964l-.193-3.3-4.299-1.707c-5.147-2.043-8.312-3.486-8.312-3.786 0-.354 4.762-1.8 7.707-2.342a28.811 28.811 0 003.165-.708 7.485 7.485 0 011.239-.3 1.376 1.376 0 001.018-.763 20.034 20.034 0 00.8-6.155c-.165-.654-.193-.654-1.018-.218-.468.218-.908.354-.991.272-.11-.082-.55.082-1.018.354-1.266.763-5.395 2.015-13.707 4.112l-7.4 1.879-7.762-3.4c-11.092-4.875-12.853-5.91-12.853-7.517-.006-1.227-.474-.87-.831.597zm26.478 18.22c7.266 2.887 11.175 4.575 12.936 5.638 1.624.98 2.395 1.879 1.954 2.288-.44.436-14.147.926-26.505.926-12.248.027-12.551.027-13.817-.545-2.34-1.089-1.954-2.614 1.018-3.84 1.844-.735 10.019-3.4 14.45-4.712 1.6-.463 3.385-1.008 3.991-1.226.606-.191 1.128-.381 1.156-.381.055-.027 2.202.817 4.816 1.852zm-28.13 7.113c0 .6-.11 1.089-.275 1.089-.3 0-.385-1.716-.083-1.988.303-.331.358-.222.358.899zm44.753.49c-.413.409-.44.354-.44-.626 0-1.062 0-1.062.44-.436.413.572.413.649 0 1.058zM469.697-278.101c-1.156.354-2.257.735-2.395.817-.413.245-.33.844.138 1.226.771.626 6.743-.708 7.817-1.743.385-.409.385-.49.027-.708-.716-.463-3.358-.243-5.587.408zM456.871-275.486c-2.339.926-16.211 1.607-32.56 1.607-7.872 0-12.055.082-12.055.272 0 .136-.358.272-.826.272h-.826v2.969a10.886 10.886 0 00.248 3.132 8.536 8.536 0 002.422-.327c1.927-.409 3.963-.463 19.762-.463 16.569.027 20.395.163 22.652.844.468.136.605.054.605-.3 0-.381.165-.436.936-.3.881.163.936.136 1.1-.844.385-2.342.055-7.163-.5-7.135a4.148 4.148 0 00-.958.273zM127.057-273.008a3.661 3.661 0 00-2.918 3.759c-.11 1.389-.028 1.607.688 2.369 1.1 1.171 2.45 1.389 4.707.79a10.754 10.754 0 002.477-.926 3.9 3.9 0 001.431-2.805 5.087 5.087 0 00-2.312-3.35c-1.211-.572-2.119-.517-4.073.163zM412.255-263.803c0 .163-.358.272-.826.272h-.826v5.365l10.817.191c19.046.327 31.4.953 33.111 1.661a1.538 1.538 0 011.073 1.2c.33 1.5 0 1.879-1.734 2.1-2.5.3-26.7-.953-34.57-1.8-5.23-.572-6.248-.626-6.853-.327a5.072 5.072 0 01-1.294.381c-1.018.109-1.4 1.117-1.321 3.486l.082 2.043 3.028.054c8.587.191 37.57 2.778 40.955 3.649.8.218 1.156.191 1.486-.082a1.758 1.758 0 011.073-.272c.991.136 1.486-1.171 1.762-4.657.358-4 .33-11.248 0-12.446l-.275-.953-22.845-.054c-14.641-.056-22.843.026-22.843.189zm44.976 7.522a3.035 3.035 0 01-.248 2.56c-.358.3-.413.136-.413-1.334-.002-1.585.301-2.157.661-1.226zM470.606-263.23c-2.2.626-3.055 1.416-3.22 3.023a3.187 3.187 0 003.138 3.758 12.334 12.334 0 004.156-1.2c2.229-1.144 1.569-5.175-.991-5.883-1.212-.324-.882-.352-3.083.302zM128.209-252.636a26.361 26.361 0 00-2.78.463c-2.064.572-2.147 1.008-.248 1.416a12.13 12.13 0 005.642-.109 6.829 6.829 0 011.6-.409.705.705 0 00.468-1.226c-.357-.435-1.541-.462-4.682-.135zM467.164-243.131c-1.266.354-1.651.6-1.651.98 0 .654.826.9 3.3.926 2.009.027 5.56-.763 5.174-1.171-1.043-1.035-4.538-1.416-6.823-.735zM128.956-235.179c-3.5.98-4.294 1.743-2.367 2.233a13.354 13.354 0 005.2-.327 13.626 13.626 0 011.4-.409 3.616 3.616 0 001.376-.681c1.712-1.361-1.866-1.878-5.609-.816zM191.38-229.133a21.749 21.749 0 00-2.34 1.008c-6.083 3.023-35.478 13.615-37.707 13.615-.44 0-.881.109-.963.272a1.467 1.467 0 01-.991.272c-.44 0-.8.109-.8.272 0 1.471 11.78 26.472 14.312 30.312.826 1.307.853 1.334 1.541.872.358-.218.8-.354.936-.272a5.731 5.731 0 002.009-.817 100.194 100.194 0 0112.716-4.848c4.569-1.471 5.918-1.77 5.918-1.28 0 .735-14.78 14.9-15.991 15.306-.908.327 3.22 6.482 4.349 6.482.22 0 .468-.245.55-.545.11-.409.248-.463.633-.272.826.436 1.018.327 1.624-.9.716-1.389 4.239-5.311 16.129-17.893 9.523-10.077 12.3-13.1 12.138-13.29-.248-.218-6.33 1.607-19.982 6.073-16.927 5.529-19.707 6.4-20.56 6.4-.8 0-.8-.3 0-.817 2.2-1.389 9.358-5.42 17.532-9.886 12.441-6.754 17.78-9.8 19.624-11.112a23.422 23.422 0 00-1.817-4.494c-1.128-2.369-3.055-6.455-4.294-9.069-2.777-5.966-2.832-5.988-4.566-5.389zm3.44 6.482a.253.253 0 01-.275.245c-.138 0-.275-.191-.275-.436 0-.218.138-.327.275-.245a.517.517 0 01.275.436zm-2.009.436c.3.763-1.761 2.26-5.037 3.731-8.422 3.731-25.542 10.894-29.67 12.446-1.266.463-1.734.517-2.257.272a1.611 1.611 0 01-.8-1.934c.33-.545 4.294-2.233 16.211-6.945 12.358-4.875 20.477-7.98 21.028-8.007.194-.027.442.191.525.436zm3.385 7.952c0 1.144-2.945 2.914-15.413 9.287-16.817 8.606-18.688 9.532-19.4 9.532a2.487 2.487 0 01-2.064-1.906c0-1.253 1.073-1.906 11.835-6.945 3.11-1.443 8.257-3.813 11.422-5.229 11.556-5.202 13.62-5.91 13.62-4.739zm-42.441 8.2c.33.9-.028 1.117-.5.3-.33-.654-.358-1.471-.028-1.28a2.213 2.213 0 01.528.977zm5.119 11.139c-.22.245-1.156-.844-1.294-1.471-.193-1.117.165-1.035.8.191a3.786 3.786 0 01.494 1.277zM463.752-226.11c-.193.245-.468.354-.605.272-.413-.245-1.349.163-1.349.572a1.35 1.35 0 00.633.817 8.809 8.809 0 004.624.6 7.914 7.914 0 011.321-.354c.908-.191 1.128-.327 1.128-.79 0-.517-.22-.626-2.092-.926-.881-.136-2.009-.354-2.477-.436-.578-.136-.935-.054-1.183.245zM403.227-221.153c-.33.218-.716.354-.853.272-.5-.3-1.844 1.171-2.725 2.941a11.2 11.2 0 00-.881 2.07 48.56 48.56 0 005.859 3.157c14.5 7.19 29.725 15.5 31.6 17.267 1.541 1.471 1.844 3.513.468 3.132-2.835-.79-28.074-15.006-35.863-20.181-1.431-.98-2.2-1.144-2.422-.6-.055.191-.468.354-.908.354-.688 0-.908.245-1.817 1.77-1.734 3-1.734 2.969.936 4.276 4.019 1.992 23.286 13.482 29.479 17.57 4.294 2.832 5.422 3.867 5.422 4.875 0 1.2-.605 1.226-2.835.191-3.22-1.525-26.34-16.368-31.349-20.126-2.2-1.661-2.7-1.852-3.22-1.226a1.165 1.165 0 01-.936.245c-.55-.109-.853.191-2.064 2.015a23.817 23.817 0 00-1.486 2.451 20.827 20.827 0 004.046 2.86c5.835 3.649 21.3 13.808 25.872 17.022 3.743 2.642 6.193 4.875 6.193 5.61a1.959 1.959 0 01-.33.817c-.33.436-.688.245-3.963-1.8-9.661-6.1-28.019-18.846-30.579-21.243-.826-.763-.936-.817-1.651-.463a3.107 3.107 0 01-1.211.3c-.881-.109-4.046 4.14-3.716 5.011a.7.7 0 00.606.409c1.156 0 20.395 13.536 29.313 20.589 3.743 2.969 5.2 4.494 5.2 5.392 0 .953.5 1.144 1.239.436.413-.381.688-.49.826-.3.33.545.605.327 2.257-1.825 4.707-6.046 15.083-22.55 19.459-30.938 1.734-3.323 1.872-3.867.936-3.568-2.917.9-2.89.926-6.908-1.008-5.973-2.887-25.1-13.073-30.083-16.041a19.318 19.318 0 01-2.587-1.743c-.443-.515-.553-.515-1.324.03zm36.166 27.7c-.138.572-.908 1.2-1.156.926a2.525 2.525 0 01.5-.953c.629-.983.932-.983.657.024zm-6.22 9.75c-.193.3-.385.49-.468.409s0-.327.193-.572c.495-.575.629-.521.275.16zM134.543-218.185c-2.532.844-4.679 1.988-4.679 2.451s1.128.545 2.367.163c.44-.136 1.734-.545 2.862-.872 2.45-.708 3.3-1.2 3.3-1.906s-1.483-.653-3.85.164zM458.495-209.333c0 .136-.358.272-.8.272a1.318 1.318 0 00-1.018.327c-.33.517.908 1.28 3.3 1.961 3.028.926 3.33.953 3.3.354a1.111 1.111 0 010-.463s.44.109.908.245c.578.163.963.163 1.073 0 .523-.844-3.413-2.969-5.532-2.969-.68.001-1.231.109-1.231.273zM141.286-202.035c-3.991 1.362-6.165 2.832-5.257 3.568.44.381 1.073.272 4.431-.817 2.7-.871 3.991-1.77 3.991-2.832 0-.872-.357-.845-3.165.081zM451.752-193.293a2.568 2.568 0 01-1.073.354c-1.954.218-.688 1.362 2.615 2.4 2.119.654 2.615.572 1.6-.245-.8-.681-.661-.681.853-.163 1.762.626 1.9.49.606-.654-1.821-1.664-3.885-2.4-4.601-1.692zM146.516-187.791c-2.064.681-3.716 2.152-3.716 3.35a4.723 4.723 0 002.587 3.432c1.431.681 1.431.681 3.633-.027 1.4-.463 1.927-.763 2.339-1.443.963-1.552.468-4.276-.908-5.175-1.045-.682-2.146-.709-3.935-.137zM443.935-178.859c-2.119.681-2.78 1.362-2.78 2.751a3.917 3.917 0 001.459 3.186c1.1 1.144 1.679 1.171 1.514.082-.138-.953-.11-.98.661-.272.991.9 1.294.708 1.239-.817a2.41 2.41 0 01.936-2.369c1.4-1.443 1.734-2.124 1.211-2.533-.662-.545-2.644-.545-4.24-.028zM226.829-177.878a1.447 1.447 0 01-1.046.245c-.661-.272-2.642 1.934-6.606 7.244-8.697 11.657-16.761 22.224-18.688 24.484-2.092 2.478-2.119 2.533-1.679 3.186a13.864 13.864 0 004.514 3.4c.8.272.991.245 1.294-.136a.857.857 0 011.018-.3c.606.163.771.054 1.184-.735 1.073-2.1 12.386-18.029 21.248-29.9a48.182 48.182 0 003.358-4.821 17 17 0 00-3.826-3.077 2.672 2.672 0 00-.771.41zM232.527-173.656c-.248.463-.385.49-.881.245-.33-.191-.633-.191-.743-.054-.083.136-2.45 3.622-5.229 7.735-11.2 16.477-16.982 24.783-18.854 27.044l-1.1 1.334.716.6c.413.354 1.817 1.253 3.11 2.043 2.395 1.443 2.615 1.471 2.973.436.055-.136.385-.082.743.109.55.3.688.3.8-.027.908-2.751 10.074-16.885 19.569-30.2 3.3-4.63 4.129-5.937 4.129-6.645 0-.49-1.321-1.5-3.22-2.451-1.738-.85-1.655-.85-2.013-.169zM158.461-171.233a11.941 11.941 0 00-2.367 1.174c-1.211.844-3.275 2.887-3.083 3.05.22.191 3.743-1.089 5.229-1.906 1.762-1.008 2.587-1.852 2.367-2.424-.219-.493-.495-.493-2.146.106zM353.795-165.895c.22 1.144-.028 1.2-1.046.218l-.771-.735v.735c0 1.117-.193.381 7.1 29.059 1.378 5.311 2.616 10.595 2.806 11.711s.385 2.179.413 2.369c.138.381 3.606-.735 5.312-1.716 1.184-.681 1.541-1.607.771-1.906a3.927 3.927 0 01-.936-1.689c-1.321-3.595-5.147-18.029-4.954-18.6.11-.327 7.872 8.089 10.707 11.6 2.257 2.778 2.78 3.84 2.56 5.011-.193.953-.11 1.008.963.436.44-.218.853-.327.936-.218.33.3 7.6-4 8.615-5.12l.523-.572-1.156.191c-1.431.218-1.927-.027-4.184-2.152-2.284-2.152-10.789-11.411-17.945-19.5-5.615-6.373-9.165-10.077-9.661-10.077-.135.002-.164.438-.053.955zM245.517-163.253c-.523.545-.661.572-.881.218-.22-.327-1.376.708-5.725 5.038-8.287 8.307-23.257 23.776-23.807 24.675-.826 1.253-.523 1.879 1.266 2.805 1.486.79 1.624.817 1.954.381a1.373 1.373 0 011.128-.409c.606.027.826-.082.908-.49a5.988 5.988 0 01.991-1.634c2.45-3.1 12.523-14.135 12.743-13.944.11.109-.963 4.085-3.275 12.038-1.761 6.128-2.064 6.945-3.028 8.061a9.7 9.7 0 00-1.046 1.416c0 .381 1.651 1.634 3.3 2.478 2.312 1.171 3.248 1.416 3.468.844a.783.783 0 01.771-.381c1.156.082 1.266 0 1.266-1.2a20.267 20.267 0 01.523-3.323c1.431-6.237 6.441-23.966 8.945-31.674 1.876-5.743 1.931-6.315.499-4.899zM432.898-163.688a3.659 3.659 0 00.275.681c.358.626.083.654-.661.109-1.624-1.226-1.679.245-.055 1.716 1.9 1.743 3.22 1.906 2.229.272l-.5-.844.963.708c.853.654 1.872.98 1.872.6a5.084 5.084 0 00-1.982-2.587c-1.013-.737-2.141-1.091-2.141-.655zM169.36-157.262c-2.615.844-5.092 2.805-5.092 4.031 0 .681.33.681 2.147.027a10.281 10.281 0 004.514-3.241c.688-1.171.221-1.416-1.569-.817zM286.61-155.218a5.936 5.936 0 00-1.376.354 11.675 11.675 0 01-1.266.381 1.281 1.281 0 00-.908.6c-.083.245-.661 4.82-1.266 10.186-1.817 16.15-3.936 31.565-4.541 33.035-.275.681 1.1 1.171 4.321 1.525 3.275.354 8.78.381 9.633.054a11.022 11.022 0 011.349-.409c.661-.136.743-.3.908-1.825.385-3.3 4.156-18.765 4.569-18.765s3.358 12.691 4.129 17.784c.275 1.934.275 2.206-.165 2.669-.881.953-.193 1.144 3.743 1.008a13.429 13.429 0 003.908-.436 1.413 1.413 0 01.908-.327 1.891 1.891 0 00.963-.272c.33-.218.33-.3-.055-.735-.853-.926-2.587-7-5.174-18.056-.743-3.214-1.927-8.252-2.615-11.166-1.706-7.353-2.973-11.983-3.22-11.983-.138 0-.358.545-.55 1.226-.413 1.471-.661 1.552-.881.272-.11-.517-.3-.953-.413-.953-.358 0-2.037 5.91-5.257 18.519-4.1 15.959-5.78 21.869-6.33 22.2-.138.082-.385-.109-.578-.463-.55-1.008.055-10.295 1.651-25.546.688-6.455 1.128-10.567 1.569-14.271a18.906 18.906 0 00.22-4.249 7.029 7.029 0 00-3.276-.357zM421.339-150.017c0 .872 4.1 4.412 5.092 4.412.661 0-1.982-3-3.606-4.112-1.377-.926-1.486-.954-1.486-.3zM419.412-149.499c0 .953 4.651 4.848 5.174 4.33.385-.381-4.184-4.793-4.954-4.793-.138 0-.22.218-.22.463zM181.994-144.652c-.33.218-.661.327-.743.218-.55-.517-5.422 3.677-5.422 4.657 0 .654.523.79 1.266.3a1.24 1.24 0 01.936-.272c.688.409 3.853-2.369 4.789-4.167a4.356 4.356 0 00.44-1.008c0-.272-.716-.136-1.266.272zM408.402-137.652a3.791 3.791 0 001.844 1.852c.578 0 .413-.79-.33-1.5-.688-.71-1.514-.897-1.514-.352zM406.641-137.19c-.22.327 1.156 1.934 1.651 1.934.605 0 .468-.763-.3-1.5-.691-.706-1.104-.841-1.351-.434zM194.682-133.377a2.568 2.568 0 01-1.073.354c-1.431.163-4.514 4.657-3.881 5.665.138.218.385.163.853-.109a2.814 2.814 0 011.349-.436c1.266 0 4.844-4.276 4.431-5.311-.165-.462-1.294-.544-1.679-.163zM393.677-127.63c-.248.409.523 1.661 1.762 2.86 1.239 1.171 1.4.926.605-.872-.799-1.714-1.927-2.696-2.367-1.988zM392.053-127.167c-.44.436-.055 1.253 1.184 2.587.743.79 1.431 1.389 1.514 1.28a5.392 5.392 0 00-.633-1.8c-.744-1.55-1.652-2.475-2.065-2.067zM206.132-122.973c-2.229.763-3.248 1.934-2.89 3.35.11.49.3.572 1.046.49 1.211-.136 2.752 1.089 2.56 2.043-.138.79.11.79 2.835-.027l2.064-.6.083-1.253a5.875 5.875 0 00-1.073-4.058c-.662-.653-2.561-.653-4.625.055zM379.365-118.725c-.606.218-1.431.545-1.844.681a3.454 3.454 0 00-1.872 3.241c0 1.5.165 1.743 1.459 2.288 1.349.545 1.651.517 1.431-.163-.165-.49-.11-.545.468-.354 1.1.327 1.431.272 1.459-.3 0-.381.358-.626 1.459-.953 2.339-.654 2.56-1.8.688-3.568-1.322-1.253-1.872-1.416-3.248-.872zM224.876-114.503c-.33.327-.606.463-.606.272a.375.375 0 00-.413-.327c-.991 0-3.275 4.9-2.587 5.556.275.3.468.136 1.459-1.334.358-.517.385-.49.248.191-.165.872.33 1.035.936.272a20.46 20.46 0 002.284-4.739c0-.681-.578-.623-1.321.109zM362.768-111.235a1.059 1.059 0 00.11 1.607c.358.272.468.272.688-.054.578-.9-.111-2.234-.798-1.553zM360.593-110.308c-.193.545.248 1.334.771 1.334.605 0 .5-1.607-.11-1.716a.616.616 0 00-.661.382zM241.087-107.722c-.275.463-.413.517-.578.245a.58.58 0 00-.661-.191c-.963.381-3 5.665-2.395 6.264.165.163.33.245.385.163.055-.054.358-.463.688-.9.55-.708.606-.735.606-.191 0 .3.11.572.248.572.8 0 3.055-4.249 3.055-5.719 0-.978-.77-1.114-1.348-.243zM346.116-104.835c-.358.327-.193 1.117.33 1.743l.523.654.3-.763c.444-1.144-.409-2.37-1.153-1.634zM344.465-104.29c-.33.3-.22 1.307.193 1.852.358.49.385.49.716-.109.494-.953-.249-2.396-.909-1.743zM258.152-102.792a44.063 44.063 0 00-.991 5.256l-.137 1.089.55-1.008c.826-1.5 1.954-5.011 1.761-5.5-.248-.627-.911-.518-1.183.163zM256.472-102.438c-.3.381-1.459 6.155-1.239 6.346.138.136 1.184-2.26 1.844-4.221.716-2.098.358-3.296-.605-2.125zM328.859-99.986c0 .681.138 1.226.275 1.226.165 0 .275-.545.275-1.226s-.11-1.226-.275-1.226c-.137-.001-.275.544-.275 1.226zM327.125-100.314c-.275.708-.248 1.77.055 1.934.33.218.523-.9.3-1.743-.135-.6-.19-.627-.355-.191zM275.491-99.933c-.413.79-.688 3.758-.358 4.3.248.436.3.409.771-.3a4.2 4.2 0 00.523-2.533c-.001-1.794-.386-2.42-.936-1.467zM273.591-99.17c-.385.79-.44 4.494-.11 4.494.5 0 1.156-1.988 1.156-3.54 0-1.799-.468-2.207-1.046-.954zM293.078-98.761a2.2 2.2 0 01-.963.272 4.584 4.584 0 00-3 2.288c-.606 1.253-.22 2.07.936 2.07.55 0 .853.163.963.545.22.654.605.681 1.266.109.633-.572 1.156-.245.963.572-.3 1.144.881 1.2 1.431.054.248-.49.3-.517.3-.136.028.708.743.6 1.376-.218a3.3 3.3 0 00.578-2.342c0-1.5-.083-1.716-.936-2.56a2.323 2.323 0 00-2.914-.654zm2.285 4.63c-.083.3-.193.545-.248.545s-.11-.245-.11-.545.11-.545.248-.545.196.245.11.545zM311.134-98.63a6.12 6.12 0 00-.193 1.171c-.028.735-.028.735-.413-.163-.716-1.607-1.486-.763-1.486 1.634 0 2.451.771 2.832 1.431.681l.358-1.144.138.953c.193 1.362.881 1.226 1.349-.245a3.766 3.766 0 00.138-2.179c-.276-1.03-1.019-1.439-1.322-.708z"/></g></svg>
