<svg width="128" height="128" xmlns="http://www.w3.org/2000/svg"><defs><linearGradient id="SVGID_1_" x1="53.201" x2="121.42" y1="80.075" y2="67.916" gradientTransform="translate(-16.591 -22.083)" gradientUnits="userSpaceOnUse"><stop stop-color="#E72F6B" offset="0"/><stop stop-color="#E8376A" offset=".03"/><stop stop-color="#EC6465" offset=".252"/><stop stop-color="#F08058" offset=".466"/><stop stop-color="#F39149" offset=".667"/><stop stop-color="#F59C3D" offset=".85"/><stop stop-color="#F69F38" offset="1"/></linearGradient><linearGradient id="SVGID_2_" x1="27.649" x2="100.39" y1="79.72" y2="44.464" gradientTransform="translate(-16.591 -22.083)" gradientUnits="userSpaceOnUse"><stop stop-color="#E72F6B" offset="0"/><stop stop-color="#E8376A" offset=".03"/><stop stop-color="#EC6465" offset=".252"/><stop stop-color="#F08058" offset=".466"/><stop stop-color="#F39149" offset=".667"/><stop stop-color="#F59C3D" offset=".85"/><stop stop-color="#F69F38" offset="1"/></linearGradient></defs><style></style><path d="M100.63 51.167c2.72-1.56 2.74-3.39.18-5.24-1.81-1.3-3.98-2.19-3.98-4.76 0-.62.06-1.58.42-2.36 2.29-4.9 1.36-8.87-.12-13.38-.73-2.23 1.57-.83 1-3.3-1.05-3.41-2.91-6.21-5.43-8.28-.87-.71 2.71-3.56 5.01-4.58.24-.11.23-.46-.02-.55-6.57-2.57-9.81.41-11.15-.05-.69-.24-2.65-2.79-.63-8.24.09-.23-.12-.47-.36-.42-4.23 1.01-4.81 9.38-5.76 9.17-7.12-1.64-11.81-1.64-16.18-.66-.52.12-.53.85-.01.99 3.03.79 6.41 2.29 8.47 6 1.28 2.31.51 4.84 1.6 6.2 1.52 1.9 5.9 8.48 4.73 14.27-1.16 5.79-3.11 7.6-1.77 9.52s5.7 6.25 5.37 8.99-1.83 4.41-2.9 6.13-1.52 7.3-1.66 9.1-.49 5.36-3 7.78c-2.24 2.15-4.54 3.3-7.25 3.94-.56.13-.92.67-.83 1.24.04.23.08.47.12.71.26 1.56.55 3.33.88 5.3.08.45.42.81.87.91 4.55 1.06 13.86 5.79 17.45 7.89a.677.677 0 001.02-.6c-.15-10.69-2.32-13.44-3.29-16.04-1.01-2.7-2.09-5.51-1.39-7.48.47-1.33 1.84-2.49 3.95-2.59 2.35-.11 4.72-.29 7.03-.73 2.58-.5 4.61-2.64 4.72-5.27a5.06 5.06 0 011.23-3.1c1.42-1.6 1.98-2.06-.33-3.42-.14-.08-.09-.3.07-.31.47-.04 1.05-.09 1.27-.24.82-.55 1.07-1.26.57-2.18-.38-.7-.78-1.41-1.04-2.16-.22-.72.31-1.73 1.14-2.2z" fill="url(#SVGID_1_)" transform="translate(1.507 5.432) scale(1.217)"/><path d="M60.889 75.147c9.81.42 9.77-5.25 9.77-6.51s.17-1.6.74-2.23c1.41-1.56.41-3-.31-3.75a.282.282 0 01.09-.45c1.23-.57 1.86-1.14 1.78-1.82-.37-1.67-.29-2.07-.24-2.69.01-.09.06-.18.14-.23 4.84-3.12 2.5-5.07 1.21-6.18-1.3-1.12-1.89-1.43-2.87-3.5-.98-2.06-1.19-3.65-.31-5.87.59-1.5 1.39-2.42 1.45-5.22.17-7.52-3.86-11.08-5.32-12.89a.266.266 0 01-.04-.27c.19-.52.74-2.45-.65-4.96-1.62-2.93-5.95-2.62-9.7-3.54-.06-.02-.12-.05-.15-.1-3.18-4.09-9.74-3.49-9.74-3.49s-10.87.58-19.04 7.08c-1.01-.74-2.44-1.07-3.64-.51-3.26 1.52-5.37 5.95-5.82 10.49-.13 1.34.45 2.35 1.31 2.92-.76 3.28-.95 7.1-.35 11.54 2.11 15.9 13.01 22.7 14.55 23.58.11.06.16.18.12.3-.49 1.74-2.47 11.89-3.44 16.55-.18.85.47 1.64 1.34 1.63 3.43-.04 11.47-.19 28.44 10.09.6.36 1.34-.15 1.21-.84-1.5-8-2.46-12.42-3.02-14.53-.44-1.66-1.3-2.98-.8-3.83.37-.62 1.6-.84 3.29-.77zm-45.78-48.13c.24-.05.41-.24.45-.48.45-2.9 1.59-6.06 4.28-8.39.29-.25.25-.72-.08-.93-5.62-3.62-11.52-2.75-16.13 3.11-5.4 6.87-4.76 16.49 1.83 25.84 5.16 7.32 5.53 12.54 5.44 17.53-.01.62.84.82 1.1.25 5.7-12.02 3.47-13.59-.33-24.4-3.06-8.72 1.23-12.04 3.44-12.53z" fill="url(#SVGID_2_)" transform="translate(1.507 5.432) scale(1.217)"/></svg>
