<svg xmlns="http://www.w3.org/2000/svg" height="128" width="128" fill="#fff"><path d="M123.974 67.702c3.3-1.9 3.335-4.126.22-6.377-2.203-1.582-4.844-2.665-4.844-5.793 0-.755.073-1.923.5-2.872 2.787-5.963 1.655-10.795-.146-16.283-.888-2.714 1.9-1 1.217-4.016-1.278-4.15-3.54-7.558-6.608-10.077-1.06-.864 3.298-4.333 6.097-5.574.292-.134.28-.56-.024-.67-7.996-3.128-11.94.5-13.57-.06-.84-.292-3.225-3.395-.767-10.028.1-.28-.146-.572-.438-.5-5.148 1.23-5.854 11.415-7 11.16-8.665-1.996-14.373-1.996-19.7-.803-.633.146-.645 1.034-.012 1.205 3.688.96 7.8 2.787 10.308 7.302 1.558 2.8.62 5.9 1.947 7.545 1.85 2.312 7.18 10.32 5.756 17.367-1.412 7.046-3.785 9.25-2.154 11.586s6.937 7.606 6.535 10.94-2.227 5.367-3.53 7.46-1.85 8.884-2.02 11.075-.596 6.523-3.65 9.468c-2.726 2.617-5.525 4.016-8.823 4.795a1.33 1.33 0 00-1.01 1.509l.146.864 1.07 6.45a1.38 1.38 0 001.059 1.107c5.537 1.3 16.868 7.046 21.237 9.602a.822.822 0 001.24-.73c-.183-13-2.823-16.356-4.004-19.52-1.23-3.286-2.544-6.706-1.692-9.103.572-1.62 2.24-3.03 4.807-3.152 2.86-.134 5.744-.353 8.556-.888 3.14-.6 5.6-3.213 5.744-6.414a6.153 6.153 0 011.497-3.773c1.728-1.947 2.4-2.507-.402-4.162-.17-.097-.1-.365.085-.377.572-.05 1.278-.1 1.546-.292.998-.67 1.302-1.533.694-2.653-.462-.852-.95-1.716-1.266-2.63-.268-.876.377-2.105 1.387-2.677zM75.6 96.886c11.94.5 11.9-6.4 11.9-7.923s.207-1.947.9-2.714c1.716-1.9.5-3.65-.377-4.564a.352.352 0 01.1-.548c1.497-.694 2.264-1.387 2.166-2.215-.45-2.032-.353-2.52-.292-3.274a.4.4 0 01.17-.28c5.9-3.797 3.043-6.17 1.473-7.52-1.582-1.363-2.3-1.74-3.493-4.26-1.193-2.507-1.448-4.442-.377-7.144.718-1.825 1.692-2.945 1.765-6.353.207-9.152-4.698-13.484-6.474-15.687a.33.33 0 01-.05-.33c.23-.633.9-2.982-.8-6.036-1.972-3.566-7.24-3.2-11.805-4.308-.073-.024-.146-.06-.183-.122-3.87-4.978-11.854-4.247-11.854-4.247s-13.23.706-23.172 8.616c-1.23-.9-2.97-1.302-4.43-.62-3.967 1.85-6.535 7.24-7.083 12.766-.158 1.63.548 2.86 1.594 3.554-.925 3.992-1.156 8.64-.426 14.044 2.568 19.352 15.833 27.627 17.708 28.7.134.073.195.22.146.365-.596 2.118-3.006 14.47-4.186 20.14a1.64 1.64 0 001.631 1.984c4.174-.05 13.96-.23 34.6 12.28a.98.98 0 001.473-1.022c-1.826-9.736-2.994-15.115-3.675-17.683-.535-2.02-1.582-3.627-.974-4.66.45-.755 1.947-1.022 4.004-.937zM19.894 38.3a.7.7 0 00.548-.584c.548-3.53 1.935-7.375 5.2-10.2.353-.304.304-.876-.097-1.132-6.84-4.406-14.02-3.347-19.63 3.785C-.65 38.53.13 50.238 8.15 61.617c6.28 8.908 6.73 15.26 6.62 21.334-.012.755 1.022.998 1.34.304 6.937-14.628 4.223-16.54-.402-29.695-3.724-10.612 1.497-14.653 4.186-15.25z"/></svg>
