<svg xmlns="http://www.w3.org/2000/svg" width="104.419" height="102.793"><defs><style>.b{fill:#322d88}</style></defs><path d="M93.4 21.733c-7.463-2.989-15.074 1.707-19.736 6.026-.125-.113.143-.091.017-.2 4.919-6.391 6.04-14.644 2.269-19.671C70.219.256 47.355-3.142 38.036 3.675c-4.205 3.1-4.561 7.058-4.818 9.633-.388 3.869 1.194 7.071 2.213 10.113-.463.259.161-.367-.289-.086-3.76-6.047-9.387-11.285-18.176-10.026C6.44 14.811-4.523 36.969 1.925 50.018c1.29 2.621 5.5 5.638 7.825 6.621 2.615 1.106 5.7 1.31 9.08 1.536.11.637-.062-.384.084.24C11.694 60.029-.022 66.94 3.121 77.7c4.807 14.236 20.02 22.041 28.9 21.065 7.152-.787 13.415-6.532 16.076-13.224 1.062.208-.767-.032.329.073.617 6.12 2.406 11.072 5.258 14.957 5.479 7.511 39.149-5.154 36.115-21.67-.768-4.161-3.678-9.835-7.685-12.786.367-.7-.331.486-.012-.237C94 67.742 102.983 61.6 104.235 50.62c1.278-11.165-4.275-26.262-10.835-28.887" fill="#fbf412"/><path class="b" d="M41.769 49.04a2.652 2.652 0 10-.439-1.98 2.55 2.55 0 00.439 1.98M37.675 69.753a2.987 2.987 0 00.251 2.178 2.473 2.473 0 003.318.585 2.989 2.989 0 00.981-1.961l2.768-15.7a2.988 2.988 0 00-.256-2.178 2.474 2.474 0 00-3.319-.585 2.989 2.989 0 00-.98 1.961z"/><path d="M48.981 66.31a4.249 4.249 0 00.886 2.067 2.427 2.427 0 001.838.623 2.637 2.637 0 001.821-.575 2.792 2.792 0 00.837-1.624l1.509-8.17h.066l1.411 7.382a5.351 5.351 0 00.82 2.231 2.381 2.381 0 002.035.755 3.94 3.94 0 001.181-.148 1.768 1.768 0 00.754-.459 2.135 2.135 0 00.459-.788 9.21 9.21 0 00.3-1.1l2.691-13.058a5.29 5.29 0 00.131-1.05 1.962 1.962 0 00-.541-1.476 1.838 1.838 0 00-1.329-.525q-1.805 0-2.132 2.165L60.07 63.751h-.065l-2.232-11.516a2.208 2.208 0 00-.738-1.443 1.894 1.894 0 00-1.131-.394 1.53 1.53 0 00-1.476.8 8.3 8.3 0 00-.689 2.477l-1.674 10.076H52L50.359 52.76a3.9 3.9 0 00-.64-1.706 1.756 1.756 0 00-1.529-.656 2.065 2.065 0 00-1.476.525 1.969 1.969 0 00-.558 1.509 5.134 5.134 0 00.131 1.181z" fill="#cc4794"/><path d="M72.757 51.334l7.328 1.292a2.872 2.872 0 002.246-.295 2.631 2.631 0 00.6-3.389 2.873 2.873 0 00-2.009-1.044l-7.328-1.292 1.153-6.541 7.841 1.382a2.87 2.87 0 002.246-.294 2.632 2.632 0 00.6-3.389 2.874 2.874 0 00-2.009-1.045l-10.284-1.813a3.032 3.032 0 00-2.266.291 2.967 2.967 0 00-1.072 2.045l-4 22.7a2.961 2.961 0 00.307 2.289 3.032 3.032 0 002.03 1.049l10.559 1.861a2.87 2.87 0 002.245-.295 2.63 2.63 0 00.6-3.388 2.871 2.871 0 00-2.009-1.045l-8.117-1.431z" fill="#3a8637"/><path class="b" d="M24.098 64.404a2.6 2.6 0 001.2 1.8 2.743 2.743 0 003.657-.778 2.6 2.6 0 00.361-2.13L28.15 57.81l1.453-3.684 6.412 8.356a6.405 6.405 0 001.362 1.337 2.442 2.442 0 001.886.168 2.978 2.978 0 001.9-1.1 2.136 2.136 0 00.38-1.748 2.713 2.713 0 00-.342-.842 7.848 7.848 0 00-.583-.832l-8.725-11.2 3.352-9.293a4.606 4.606 0 00.287-1.139 3.165 3.165 0 00-.016-1.034 2.038 2.038 0 00-1.125-1.468 2.908 2.908 0 00-1.961-.234 2.432 2.432 0 00-1.268.636 3.952 3.952 0 00-.8 1.512l-3.817 12.65-.078.017-2.184-10.272a2.6 2.6 0 00-1.2-1.8 2.742 2.742 0 00-3.657.777 2.6 2.6 0 00-.361 2.13z"/><path d="M71.927 29.055a30.305 30.305 0 00-17.6-7.04" stroke-dasharray="0 6.308" stroke-linejoin="round" fill="none" stroke="#bcd232" stroke-linecap="round" stroke-width="3.078"/><path d="M48.215 22.193a29.836 29.836 0 00-18.951 10.032" stroke-dasharray="0 5.872" stroke-linejoin="round" fill="none" stroke="#bcd232" stroke-linecap="round" stroke-width="3.078"/><path d="M28.022 33.783h0m24.17-11.84h0M74.978 32.06h0" stroke-linejoin="round" fill="none" stroke="#bcd232" stroke-linecap="round" stroke-width="3.078"/><path d="M29.306 70.697a30.9 30.9 0 0046.146-.386" fill="none" stroke="#bcd232" stroke-linecap="round" stroke-width="3.078"/></svg>
