<?xml version="1.0" encoding="iso-8859-1"?>
<!-- Generator: Adobe Illustrator 23.0.1, SVG Export Plug-In . SVG Version: 6.00 Build 0)  -->
<svg version="1.1" id="Ebene_1" xmlns="http://www.w3.org/2000/svg" xmlns:xlink="http://www.w3.org/1999/xlink" x="0px" y="0px"
	 viewBox="0 0 153.759 151.364" enable-background="new 0 0 153.759 151.364" xml:space="preserve">
<g>
	<path fill="#FBF412" d="M137.537,32.003c-10.989-4.401-22.197,2.514-29.062,8.873c-0.184-0.167,0.211-0.134,0.025-0.299
		c7.246-9.407,8.89-21.559,3.337-28.962C103.399,0.377,69.731-4.627,56.008,5.411c-6.192,4.567-6.716,10.393-7.094,14.184
		c-0.572,5.697,1.758,10.412,3.258,14.891c-0.682,0.382,0.237-0.54-0.425-0.127c-5.537-8.904-13.822-16.617-26.764-14.764
		C9.483,21.809-6.661,54.437,2.834,73.653c1.899,3.86,8.096,8.302,11.522,9.749c3.851,1.628,8.391,1.929,13.37,2.262
		c0.162,0.938-0.092-0.566,0.123,0.353C17.22,88.394-0.032,98.57,4.596,114.421c7.079,20.962,29.479,32.455,42.549,31.019
		c10.532-1.159,19.754-9.618,23.672-19.472c1.564,0.307-1.13-0.047,0.484,0.107c0.909,9.012,3.543,16.303,7.742,22.025
		c8.068,11.06,57.647-7.589,53.18-31.909c-1.131-6.127-5.416-14.482-11.316-18.828c0.541-1.025-0.487,0.716-0.018-0.349
		c17.528,2.737,30.755-6.3,32.599-22.475C155.369,58.098,147.192,35.867,137.537,32.003"/>
	<path fill="#322D88" d="M61.505,72.213c0.617,0.883,1.457,1.418,2.519,1.605c1.062,0.187,2.034-0.028,2.917-0.647
		c0.882-0.617,1.417-1.457,1.605-2.519c0.187-1.061-0.029-2.033-0.647-2.916c-0.618-0.883-1.458-1.418-2.519-1.605
		c-1.062-0.187-2.034,0.029-2.917,0.646c-0.883,0.618-1.417,1.458-1.604,2.52C60.671,70.359,60.887,71.331,61.505,72.213"/>
	<path fill="#322D88" d="M55.477,102.712c-0.245,1.392-0.122,2.461,0.369,3.207c0.491,0.747,1.248,1.211,2.274,1.392
		c1.024,0.18,1.896,0.003,2.612-0.53c0.717-0.534,1.198-1.496,1.444-2.888l4.076-23.116c0.245-1.391,0.122-2.46-0.369-3.207
		c-0.491-0.746-1.25-1.211-2.274-1.392c-1.025-0.18-1.896-0.003-2.613,0.53c-0.717,0.535-1.198,1.497-1.443,2.888L55.477,102.712z"
		/>
	<path fill="#CC4794" d="M72.124,97.643c0.29,1.418,0.725,2.432,1.304,3.044c0.58,0.611,1.481,0.918,2.706,0.918
		c1.159,0,2.053-0.283,2.681-0.846c0.628-0.563,1.039-1.36,1.232-2.391l2.222-12.03h0.097l2.077,10.87
		c0.258,1.45,0.66,2.545,1.208,3.285c0.547,0.741,1.546,1.112,2.996,1.112c0.708,0,1.287-0.073,1.739-0.218
		c0.45-0.145,0.821-0.371,1.111-0.676c0.29-0.306,0.515-0.692,0.676-1.16c0.161-0.466,0.306-1.006,0.435-1.618l3.962-19.228
		c0.128-0.612,0.193-1.127,0.193-1.546c0-0.934-0.266-1.659-0.797-2.174c-0.532-0.515-1.184-0.773-1.957-0.773
		c-1.772,0-2.819,1.063-3.14,3.188l-2.416,16.475h-0.096l-3.286-16.958c-0.193-1.03-0.555-1.739-1.087-2.125
		c-0.531-0.387-1.087-0.58-1.666-0.58c-1.031,0-1.756,0.395-2.174,1.184c-0.419,0.789-0.757,2.004-1.015,3.647l-2.464,14.832h-0.096
		L74.153,77.69c-0.161-1.03-0.475-1.867-0.942-2.512c-0.467-0.644-1.216-0.966-2.246-0.966c-0.903,0-1.627,0.258-2.174,0.773
		c-0.549,0.515-0.822,1.256-0.822,2.222c0,0.612,0.064,1.192,0.193,1.739L72.124,97.643z"/>
	<path fill="#3A8637" d="M107.136,75.59l10.791,1.903c1.47,0.259,2.572,0.115,3.307-0.434c0.735-0.548,1.191-1.325,1.369-2.331
		c0.177-1.006,0.013-1.891-0.489-2.659c-0.503-0.766-1.489-1.279-2.959-1.538l-10.791-1.903l1.698-9.631l11.546,2.035
		c1.469,0.26,2.571,0.116,3.307-0.433c0.734-0.549,1.19-1.325,1.368-2.332c0.177-1.005,0.014-1.891-0.489-2.658
		c-0.503-0.766-1.489-1.28-2.959-1.539l-15.143-2.67c-1.431-0.252-2.543-0.109-3.336,0.429c-0.793,0.539-1.318,1.542-1.578,3.012
		L96.886,88.26c-0.26,1.47-0.109,2.593,0.452,3.37s1.557,1.291,2.989,1.544l15.549,2.741c1.469,0.259,2.571,0.115,3.306-0.434
		c0.735-0.548,1.191-1.324,1.369-2.331c0.177-1.005,0.013-1.891-0.489-2.658c-0.503-0.767-1.489-1.28-2.959-1.539l-11.952-2.107
		L107.136,75.59z"/>
	<path fill="#322D88" d="M35.485,94.836c0.26,1.223,0.846,2.106,1.761,2.65c0.914,0.544,1.887,0.706,2.918,0.487
		c1.031-0.219,1.853-0.763,2.467-1.632c0.614-0.869,0.791-1.914,0.531-3.137l-1.717-8.078l2.14-5.425l9.442,12.304
		c0.707,0.889,1.376,1.545,2.006,1.969c0.629,0.425,1.554,0.508,2.777,0.248c1.298-0.275,2.231-0.814,2.801-1.613
		c0.568-0.799,0.755-1.657,0.56-2.574c-0.089-0.42-0.257-0.833-0.503-1.24c-0.246-0.407-0.532-0.815-0.859-1.225L46.962,71.079
		l4.936-13.684c0.208-0.523,0.348-1.082,0.422-1.677c0.073-0.593,0.066-1.101-0.024-1.522c-0.211-0.992-0.764-1.713-1.657-2.162
		c-0.894-0.448-1.856-0.564-2.888-0.345c-0.802,0.171-1.424,0.483-1.867,0.936c-0.442,0.454-0.834,1.195-1.173,2.226l-5.623,18.62
		l-0.115,0.025L35.758,58.37c-0.26-1.222-0.847-2.104-1.761-2.649c-0.914-0.544-1.887-0.707-2.918-0.488
		c-1.031,0.219-1.854,0.764-2.467,1.632c-0.614,0.87-0.791,1.915-0.531,3.137L35.485,94.836z"/>
	
		<path fill="none" stroke="#BCD232" stroke-width="3.078" stroke-linecap="round" stroke-linejoin="round" stroke-dasharray="0,6.308" d="
		M105.92,42.784c-6.943-5.889-15.961-9.698-25.915-10.366"/>
	
		<path fill="none" stroke="#BCD232" stroke-width="3.078" stroke-linecap="round" stroke-linejoin="round" stroke-dasharray="0,5.872" d="
		M70.996,32.679c-11.265,1.422-21.148,6.887-27.905,14.772"/>
	<path fill="none" stroke="#BCD232" stroke-width="3.078" stroke-linecap="round" stroke-linejoin="round" d="M41.263,49.747
		L41.263,49.747 M76.853,32.312L76.853,32.312 M110.407,47.21L110.407,47.21"/>
	<path fill="none" stroke="#BCD232" stroke-width="3.078" stroke-linecap="round" d="M43.153,104.102
		c7.902,9.111,20.076,14.95,33.733,14.95c13.939,0,26.333-6.082,34.217-15.518"/>
</g>
<g>
</g>
<g>
</g>
<g>
</g>
<g>
</g>
<g>
</g>
<g>
</g>
<g>
</g>
<g>
</g>
<g>
</g>
<g>
</g>
<g>
</g>
<g>
</g>
<g>
</g>
<g>
</g>
<g>
</g>
</svg>
